<svg width="72" height="65" viewBox="0 0 72 65" fill="none" xmlns="http://www.w3.org/2000/svg">
<path d="M28.0053 64.0477C27.748 63.8472 27.6374 63.6317 27.6374 63.3291C27.6374 63.0576 28.704 60.6232 30.507 56.7778C32.0852 53.4124 33.3325 50.5882 33.2782 50.5014C33.224 50.4151 33.2408 50.3815 33.3152 50.4271C33.4586 50.5147 35.6816 45.8901 35.6455 45.5788C35.6341 45.4792 35.6593 45.4314 35.7018 45.4733C35.7443 45.5153 36.1192 44.8203 36.5346 43.9291C36.9504 43.0378 37.3338 42.2689 37.3863 42.2204C37.4389 42.1719 38.1493 42.1048 38.9645 42.0713L40.4476 42.0103L40.8764 42.87C41.1118 43.3429 41.5066 43.9569 41.7529 44.2342C41.9989 44.5115 42.133 44.7199 42.0506 44.6975C41.9682 44.6746 39.186 48.9127 35.8679 54.1152C32.5501 59.3176 29.6746 63.745 29.4783 63.9538C29.047 64.4126 28.5177 64.4462 28.0053 64.0477ZM41.8627 63.9538C41.689 63.7351 41.6937 63.7301 41.9152 63.902C42.1477 64.0821 42.2217 64.1955 42.1069 64.1955C42.0779 64.1955 41.9682 64.0867 41.8627 63.9538ZM58.8116 38.5802C58.8129 38.2764 58.8415 38.1684 58.8751 38.3402C58.9083 38.5119 58.9071 38.7605 58.8722 38.8925C58.8373 39.0245 58.8099 38.884 58.8112 38.5802H58.8116ZM12.568 38.2925C12.5747 38.1317 12.6075 38.099 12.6521 38.2091C12.6925 38.3088 12.6874 38.4279 12.6412 38.4738C12.5949 38.5197 12.5617 38.4381 12.568 38.2925ZM67.5734 35.1449C67.5734 35.1162 67.6832 35.0075 67.8177 34.9033C68.0392 34.7315 68.0443 34.7364 67.8707 34.9554C67.6882 35.1854 67.5734 35.2586 67.5734 35.1449ZM2.92212 18.7213C2.92212 18.6975 3.12601 18.4956 3.37572 18.2725L3.82975 17.867L3.41944 18.3157C3.03731 18.7341 2.92212 18.828 2.92212 18.7213ZM68.1141 18.3848C67.9404 18.1658 67.9455 18.1609 68.167 18.3327C68.3011 18.4369 68.4113 18.5456 68.4113 18.5743C68.4113 18.6879 68.2965 18.6148 68.1141 18.3848ZM3.21219 12.7462C3.21892 12.5853 3.25213 12.5526 3.29669 12.6627C3.33705 12.7625 3.332 12.8815 3.28576 12.9274C3.2391 12.9733 3.20631 12.8918 3.21219 12.7462ZM68.159 12.4815C68.162 12.2537 68.1931 12.1772 68.2288 12.3115C68.2641 12.4459 68.2616 12.6323 68.2234 12.7258C68.1851 12.8193 68.1561 12.7094 68.159 12.4815ZM68.159 11.2387C68.162 11.0109 68.1931 10.9344 68.2288 11.0688C68.2641 11.2031 68.2616 11.3895 68.2234 11.483C68.1851 11.5765 68.1561 11.4666 68.159 11.2387ZM3.21219 10.951C3.21892 10.7902 3.25213 10.7574 3.29669 10.8676C3.33705 10.9673 3.332 11.0864 3.28576 11.1323C3.2391 11.1782 3.20631 11.0966 3.21219 10.951ZM22.2526 3.95455L21.8427 3.50576L22.2963 3.91134C22.7197 4.2894 22.8143 4.40334 22.7066 4.40334C22.6827 4.40334 22.4784 4.20138 22.2526 3.95455ZM64.8417 3.95455L64.4314 3.50576L64.8855 3.91134C65.1352 4.13441 65.3391 4.33637 65.3391 4.36013C65.3391 4.46681 65.2239 4.3729 64.8417 3.95455ZM6.76199 3.7129C6.90114 3.561 7.04617 3.43672 7.08443 3.43672C7.1231 3.43672 7.04071 3.561 6.90156 3.7129C6.76241 3.86479 6.61737 3.98907 6.57912 3.98907C6.54086 3.98907 6.62284 3.86479 6.76199 3.7129ZM12.8098 0.856798C12.9106 0.816921 13.0313 0.821815 13.0775 0.86771C13.1238 0.913605 13.0414 0.946232 12.8942 0.940238C12.7316 0.933633 12.6988 0.900899 12.8098 0.85681V0.856798Z" fill="#ECECEC"/>
<path d="M42.2028 64.127C41.8547 63.8858 35.7851 54.4016 35.8498 54.1995C35.9091 54.0147 38.0329 50.6808 38.0695 50.7157C38.2696 50.9074 43.8352 63.0713 43.8352 63.317C43.8352 63.7455 43.2513 64.3337 42.8254 64.3337C42.6472 64.3337 42.3668 64.2407 42.2028 64.127ZM33 49.951C32.7898 49.6209 31.9179 48.2614 31.0628 46.9292L29.5078 44.5073L29.961 43.8913C30.2103 43.5525 30.5512 42.9871 30.7181 42.6351L31.0216 41.9948L32.5065 42.0664C33.3229 42.1057 34.0144 42.158 34.043 42.1825C34.0716 42.207 34.4609 43.0033 34.9086 43.9523L35.722 45.6772L34.5967 48.0667C33.9778 49.3806 33.4515 50.4774 33.4271 50.5035C33.4027 50.5297 33.2106 50.281 33 49.951ZM68.1541 11.8601C68.1541 11.6702 68.1856 11.5926 68.2243 11.6875C68.2634 11.7824 68.2634 11.9378 68.2243 12.0327C68.1856 12.1277 68.1541 12.05 68.1541 11.8601ZM27.0443 5.96896C27.1402 5.93064 27.2974 5.93064 27.3932 5.96896C27.4891 6.00728 27.4109 6.03862 27.2188 6.03862C27.0266 6.03862 26.948 6.00723 27.0443 5.96896ZM29.4267 5.96601C29.5276 5.92612 29.6478 5.93102 29.6945 5.97693C29.7407 6.0228 29.6583 6.05543 29.5112 6.04945C29.3485 6.04285 29.3153 6.0101 29.4267 5.96601Z" fill="#DBDBDB"/>
<path d="M50.3718 47.8068C50.4727 47.767 50.5933 47.7719 50.6396 47.8176C50.6858 47.8637 50.6034 47.8965 50.4563 47.8903C50.2936 47.8836 50.2604 47.8508 50.3718 47.8068ZM55.6347 45.4156C55.7734 45.2637 55.9184 45.1396 55.9571 45.1396C55.9954 45.1396 55.913 45.2637 55.7742 45.4156C55.6351 45.5676 55.4901 45.6917 55.4514 45.6917C55.4131 45.6917 55.4955 45.5676 55.6347 45.4156ZM42.4285 45.0358L42.0896 44.656L42.4739 44.991C42.8329 45.304 42.922 45.4156 42.8123 45.4156C42.7875 45.4156 42.6147 45.2446 42.4285 45.0358ZM56.1232 44.949C56.1232 44.9204 56.2333 44.8116 56.3674 44.7074C56.589 44.5356 56.594 44.5405 56.4204 44.7597C56.2379 44.9897 56.1232 45.0628 56.1232 44.949ZM39.4803 42.0071C39.5812 41.9673 39.7018 41.9722 39.748 42.0181C39.7943 42.0639 39.7119 42.0966 39.5648 42.0905C39.4021 42.0839 39.3689 42.0512 39.4803 42.0071ZM60.4868 38.0017C60.6214 37.967 60.8412 37.967 60.9758 38.0017C61.1099 38.0364 61.0001 38.0649 60.7311 38.0649C60.4625 38.0649 60.3523 38.0364 60.4868 38.0017ZM67.0845 35.4732C67.2236 35.3213 67.3687 35.1971 67.4073 35.1971C67.4456 35.1971 67.3632 35.3213 67.224 35.4732C67.0853 35.6251 66.9403 35.7494 66.9016 35.7494C66.8633 35.7494 66.9457 35.6251 67.0845 35.4732ZM68.5508 34.0402C68.5508 34.0115 68.6609 33.9028 68.7951 33.7985C69.0166 33.6268 69.0216 33.6317 68.848 33.8507C68.6656 34.0807 68.5508 34.1539 68.5508 34.0402ZM71.2148 28.4882C71.2216 28.3274 71.2548 28.2947 71.2993 28.4048C71.3397 28.5045 71.3346 28.6236 71.2884 28.6695C71.2417 28.7154 71.209 28.6338 71.2148 28.4882ZM71.3758 27.326C71.3758 27.0602 71.4048 26.9515 71.4397 27.0843C71.475 27.2173 71.475 27.4348 71.4397 27.5676C71.4044 27.7006 71.3758 27.5918 71.3758 27.326ZM71.3788 25.738C71.3805 25.4342 71.409 25.3262 71.4423 25.498C71.4759 25.6697 71.4746 25.9183 71.4393 26.0503C71.4044 26.1823 71.3771 26.0418 71.3788 25.738ZM68.468 18.8681L68.2019 18.5574L68.5159 18.8205C68.6887 18.9651 68.8304 19.1049 68.8304 19.1311C68.8304 19.2416 68.7177 19.1601 68.468 18.8681ZM31.2792 17.9935C31.286 17.8327 31.3192 17.7999 31.3637 17.9101C31.4041 18.0098 31.3991 18.1289 31.3524 18.1748C31.3061 18.2207 31.2734 18.1391 31.2792 17.9935ZM67.4233 17.8324L67.0849 17.4527L67.4687 17.7875C67.8277 18.1004 67.9169 18.2122 67.8071 18.2122C67.7823 18.2122 67.6095 18.0413 67.4233 17.8324ZM31.2792 17.0269C31.286 16.866 31.3192 16.8333 31.3637 16.9435C31.4041 17.0432 31.3991 17.1623 31.3524 17.2082C31.3061 17.2541 31.2734 17.1725 31.2792 17.0269ZM68.0035 13.2985C68.0102 13.1377 68.0434 13.1049 68.088 13.2151C68.1283 13.3148 68.1233 13.4339 68.0766 13.4798C68.0304 13.5257 67.9972 13.4441 68.0035 13.2985ZM68.0035 10.3987C68.0102 10.2378 68.0434 10.2051 68.088 10.3152C68.1283 10.4149 68.1233 10.534 68.0766 10.5799C68.0304 10.6258 67.9972 10.5443 68.0035 10.3987ZM35.3175 8.77003C35.3175 8.74135 35.4277 8.63262 35.5622 8.52838C35.7833 8.3566 35.7884 8.3615 35.6147 8.58052C35.4323 8.81055 35.3175 8.88369 35.3175 8.77003ZM65.3958 4.64499L65.1301 4.33429L65.4441 4.59735C65.6169 4.74203 65.7581 4.88185 65.7581 4.90805C65.7581 5.01855 65.6459 4.93697 65.3958 4.64499ZM64.2044 3.47124C64.0307 3.25222 64.0358 3.24734 64.2573 3.41911C64.4898 3.5995 64.5638 3.7129 64.4486 3.7129C64.4196 3.7129 64.3099 3.60415 64.2044 3.47124ZM59.0293 0.994885C59.1302 0.955008 59.2509 0.959901 59.2971 1.0058C59.3434 1.05169 59.261 1.08432 59.1138 1.07832C58.9512 1.07172 58.9179 1.03899 59.0293 0.994896V0.994885ZM55.818 0.856798C55.9189 0.816921 56.0391 0.821815 56.0853 0.86771C56.132 0.913605 56.0496 0.946232 55.9025 0.940238C55.7398 0.933633 55.7066 0.900899 55.818 0.85681V0.856798ZM58.0435 0.859736C58.1394 0.821425 58.2966 0.821425 58.3924 0.859736C58.4883 0.898048 58.4101 0.929386 58.218 0.929386C58.0259 0.929386 57.9472 0.898023 58.0435 0.859736Z" fill="#CBCBCB"/>
<path d="M20.9725 47.8056C21.1083 47.7703 21.297 47.7728 21.3916 47.8105C21.4862 47.8483 21.3748 47.877 21.1444 47.8745C20.914 47.8712 20.8367 47.8404 20.9725 47.8056ZM22.9946 47.8097C23.0904 47.7715 23.2476 47.7715 23.3435 47.8097C23.4398 47.8483 23.3611 47.8795 23.169 47.8795C22.9773 47.8795 22.8987 47.8483 22.9946 47.8097ZM15.9648 45.6572L15.6987 45.3467L16.0127 45.6099C16.3082 45.8569 16.3906 45.9682 16.2788 45.9682C16.2523 45.9682 16.1111 45.8283 15.9648 45.6572ZM19.85 45.2845C18.1521 44.8295 16.6807 43.9892 15.4893 42.7949C14.2857 41.5882 13.6581 40.6118 13.1717 39.1894C12.7841 38.0567 12.7942 38.0367 13.8145 37.9028C14.7452 37.7807 16.3494 37.2195 17.4004 36.6483L18.2908 36.1641L19.0988 36.5003C21.8301 37.6371 24.8531 37.5127 27.5983 36.1505C29.0877 35.4113 29.3349 35.1303 28.1679 35.5025C26.2459 36.1154 23.301 35.955 21.4265 35.1353L20.6202 34.7827L19.9051 35.1802C15.9437 37.3811 11.0277 37.1672 7.30131 34.6319C5.63025 33.495 3.85241 31.2696 3.14825 29.4339C2.47604 27.6822 2.32848 26.7413 2.4071 24.7025C2.48487 22.6751 2.73752 21.6148 3.51063 20.0765C3.95834 19.1861 4.87144 17.7958 5.0047 17.8016C5.04968 17.8036 5.3015 18.119 5.56467 18.5025C7.57372 21.4308 12.0139 23.2815 15.8092 22.7726C17.8174 22.5032 20.5643 21.361 21.4 20.4476C21.6396 20.1859 21.6043 20.1891 20.8249 20.5005C16.3616 22.2834 10.8419 20.7861 7.94325 17.0062C7.11045 15.9205 6.24781 14.2172 5.93041 13.034C5.59452 11.7801 5.5159 9.64538 5.75678 8.33364C6.12169 6.34964 7.10961 4.31915 8.36659 2.9707C8.67221 2.64275 8.89208 2.34443 8.85508 2.30777C8.71804 2.17211 11.2854 1.23882 12.423 1.01092C16.6605 0.161763 21.4294 2.18312 23.787 5.82777C24.0661 6.25959 24.3142 6.61292 24.3381 6.61292C24.3617 6.61292 24.8783 6.48157 25.4858 6.32099C28.313 5.57384 31.9969 6.1165 34.4864 7.64685C35.7207 8.40563 35.7114 8.33663 34.7164 9.36251C33.1912 10.9353 32.2361 12.6065 31.6715 14.6911C31.2507 16.2451 31.2511 18.8017 31.6723 20.3527C32.0032 21.5702 32.5913 22.8981 33.2492 23.9137C33.485 24.2774 33.654 24.5919 33.625 24.6127C33.596 24.6335 33.2429 24.8845 32.8406 25.1704C31.793 25.9148 30.8013 27.0727 30.1492 28.3125C28.2137 31.9915 28.8258 36.2088 31.7455 39.3124L32.1747 39.7682L31.5954 39.6767L31.0161 39.5851L30.5532 40.5051C29.4703 42.6571 27.362 44.4052 24.9296 45.1682C23.626 45.5771 21.1528 45.634 19.85 45.2845ZM28.6148 45.3638C28.6148 45.3351 28.7249 45.2263 28.8595 45.1221C29.0806 44.9503 29.0856 44.9553 28.912 45.174C28.7296 45.404 28.6148 45.4771 28.6148 45.3638ZM31.8005 42.0073C31.901 41.9674 32.0217 41.9723 32.0679 42.0182C32.1146 42.0641 32.0322 42.0967 31.8846 42.0907C31.7219 42.0841 31.6891 42.0514 31.8005 42.0073ZM33.8949 42.0073C33.9958 41.9674 34.1161 41.9723 34.1627 42.0182C34.209 42.0641 34.1266 42.0967 33.9794 42.0907C33.8167 42.0841 33.7835 42.0514 33.8949 42.0073ZM12.7076 39.8117C12.7143 39.6508 12.7471 39.6181 12.7921 39.7282C12.832 39.8279 12.8274 39.947 12.7807 39.9929C12.7345 40.0388 12.7013 39.9572 12.7076 39.8117ZM10.2878 38.0056C10.3836 37.9673 10.5409 37.9673 10.6367 38.0056C10.733 38.0439 10.6544 38.0753 10.4622 38.0753C10.2701 38.0753 10.1919 38.0439 10.2878 38.0056ZM3.32313 34.6794C3.14951 34.4604 3.15413 34.4555 3.37568 34.6272C3.51021 34.7315 3.61993 34.8402 3.61993 34.8689C3.61993 34.9825 3.50558 34.9094 3.32313 34.6794ZM2.48529 33.7127C2.31167 33.4938 2.31629 33.4889 2.53784 33.6606C2.67237 33.7648 2.78251 33.8736 2.78251 33.9023C2.78251 34.0159 2.66774 33.9428 2.48529 33.7127ZM0.000768627 27.6599C0.00749491 27.499 0.0402843 27.4663 0.0848459 27.5764C0.125204 27.6761 0.120165 27.7952 0.0739217 27.8411C0.0276785 27.887 -0.00553726 27.8055 0.000768627 27.6599ZM0.0116992 25.3929C0.0116992 25.203 0.0432318 25.1254 0.081908 25.2203C0.121004 25.3153 0.121004 25.4706 0.081908 25.5655C0.0432318 25.6605 0.0116992 25.5828 0.0116992 25.3929ZM2.50295 19.2649C2.50295 19.2362 2.61309 19.1275 2.74761 19.0232C2.96874 18.8515 2.97378 18.8564 2.80016 19.0754C2.61771 19.3054 2.50295 19.3786 2.50295 19.2649ZM3.23359 11.8603C3.23359 11.5945 3.26218 11.4857 3.29749 11.6186C3.3328 11.7515 3.3328 11.969 3.29749 12.1019C3.26218 12.2348 3.23359 12.1261 3.23359 11.8603Z" fill="#E8A0C8"/>
<path d="M50.0864 47.7923C50.2012 47.7159 49.9632 47.6196 49.4117 47.5179C48.33 47.319 46.4912 46.4348 45.5588 45.6647C44.5982 44.8722 43.6822 43.7435 43.1407 42.6857L42.6976 41.8197L41.7652 41.9028C41.2527 41.9486 40.7545 42.01 40.6587 42.0394C40.5624 42.0688 40.4842 42.0284 40.4842 41.9497C40.4842 41.871 40.3686 41.8428 40.2278 41.8871C39.7847 42.0262 37.8913 41.5852 36.8281 41.0951C34.3284 39.9432 32.5969 38.011 31.7279 35.4042C31.2112 33.8547 31.1831 31.4778 31.6636 29.9497C32.0974 28.57 32.789 27.3689 33.7273 26.3668L34.4987 25.5427L35.5018 26.3496C36.0533 26.7935 36.9437 27.3994 37.481 27.6962C38.4546 28.2343 38.4575 28.2377 38.5618 28.9535C38.7035 29.9285 39.2777 31.511 39.8238 32.4337C40.5607 33.6783 42.4613 35.4545 43.7654 36.1177C45.2654 36.8804 46.8843 37.2684 48.5675 37.2684C49.2986 37.2684 49.8358 37.2161 49.7627 37.1521C49.69 37.0882 49.2107 36.9272 48.6979 36.7943C46.7779 36.2968 44.6676 34.742 43.4312 32.9138C42.6459 31.7525 42.2255 30.7423 41.9106 29.2571L41.6908 28.2193L40.5734 27.6001C38.479 26.4396 36.5469 24.3104 35.6111 22.1318C34.8712 20.4095 34.7026 19.5539 34.7026 17.5217C34.7026 15.4933 34.8712 14.6333 35.6052 12.9251C36.6158 10.5727 38.6127 8.44054 40.8584 7.31628C41.996 6.74659 42.9637 6.38746 43.6792 6.26919C44.1068 6.19853 44.2329 6.13178 44.0979 6.04734C43.992 5.98088 43.9483 5.92558 44.0008 5.92442C44.1749 5.92052 46.1305 6.34408 46.6556 6.49942L47.1718 6.65215L46.9158 7.15027C46.0162 8.89893 45.6626 12.0393 46.1305 14.1199C47.1861 18.8115 50.8612 22.1488 55.6696 22.7815C56.8841 22.9413 57.9078 22.8893 59.4048 22.5919L60.2426 22.4253L58.7065 22.3334C56.8551 22.2226 55.8567 21.9748 54.3773 21.2589C50.9844 19.617 48.8017 16.7007 48.1623 12.9551C47.7133 10.326 48.531 7.05101 50.1957 4.80823C50.9986 3.72674 52.6672 2.28239 53.7745 1.7105C54.3366 1.42009 54.828 1.14596 54.8667 1.10133C55.1038 0.825646 57.3764 0.770078 58.7494 1.00639C62.4695 1.6465 65.4273 3.8191 67.0055 7.06977C67.7084 8.51784 67.9757 9.53591 68.0817 11.1697C68.2082 13.1119 67.8177 15.1028 66.992 16.7289L66.7284 17.248L67.2556 17.6948C69.91 19.9448 71.3511 23.0071 71.3662 26.4284C71.3763 28.7663 70.9105 30.5179 69.7851 32.3761C68.5841 34.3594 66.9891 35.8085 64.8506 36.8592C63.3788 37.5822 61.8271 37.9584 60.1569 37.9969L58.8146 38.0278L58.7347 39.1326C58.4434 43.1619 55.517 46.6025 51.5851 47.5391C50.223 47.8633 49.8955 47.9185 50.0864 47.7923ZM37.5255 42.0071C37.6264 41.9673 37.7467 41.9722 37.7933 42.018C37.8396 42.0639 37.7572 42.0966 37.61 42.0905C37.4473 42.0839 37.4141 42.0512 37.5255 42.0072V42.0071ZM31.6691 39.2361C31.4954 39.0171 31.5005 39.0122 31.722 39.184C31.8565 39.2882 31.9663 39.397 31.9663 39.4256C31.9663 39.5393 31.8515 39.4662 31.6691 39.2361ZM31.2903 17.5217C31.2903 17.3319 31.3218 17.2542 31.3605 17.3491C31.3992 17.444 31.3992 17.5994 31.3605 17.6943C31.3218 17.7893 31.2903 17.7116 31.2903 17.5217ZM34.2006 9.87474C34.2006 9.84606 34.3104 9.73729 34.4449 9.63309C34.6664 9.46131 34.6711 9.46621 34.4974 9.68519C34.315 9.91522 34.2006 9.98837 34.2006 9.87474Z" fill="#77D7E6"/>
<path d="M20.7299 47.7553C17.5694 47.2696 14.9478 45.3189 13.5954 42.4466C13.1014 41.3974 12.6966 39.7211 12.6966 38.7241V38.0969L11.8936 38.094C6.34404 38.0751 1.67853 34.4562 0.325705 29.121C-0.0408776 27.6743 -0.0110308 25.1774 0.391705 23.6665C0.968484 21.5016 2.52561 19.0041 4.08779 17.7382L4.72847 17.2192L4.39721 16.5728C3.63672 15.0888 3.41054 14.0084 3.41054 11.8599C3.41054 10.1458 3.45762 9.70861 3.73803 8.82197C4.55443 6.24034 6.0443 4.18188 8.11347 2.77585C8.99966 2.1737 9.06861 2.21735 8.38631 2.94922C7.10916 4.31926 6.12376 6.33694 5.75675 8.33327C5.51587 9.64505 5.59449 11.7798 5.93038 13.0337C6.24778 14.2169 7.11042 15.9201 7.94322 17.0058C10.8418 20.7857 16.3616 22.283 20.8249 20.5001C21.6043 20.1888 21.6396 20.1855 21.4 20.4472C20.9855 20.9 19.396 21.7724 18.2042 22.201C15.879 23.037 13.3982 23.0656 10.9108 22.2852C8.88994 21.6511 6.62612 20.0492 5.56463 18.5022C5.30147 18.1186 5.04965 17.8033 5.00467 17.8013C4.87141 17.7954 3.95831 19.1857 3.51059 20.0762C2.73749 21.6144 2.48484 22.6748 2.40706 24.7022C2.32845 26.7409 2.47601 27.6818 3.14822 29.4335C3.85237 31.2692 5.63021 33.4946 7.30127 34.6315C11.0276 37.1669 15.9437 37.3807 19.9051 35.1798L20.6202 34.7823L21.4265 35.135C23.301 35.9547 26.2459 36.1151 28.1679 35.5021C29.3349 35.13 29.0877 35.411 27.5982 36.1502C24.8531 37.5123 21.83 37.6368 19.0988 36.5L18.2908 36.1637L17.4004 36.6479C16.3494 37.2192 14.7452 37.7804 13.8144 37.9025C12.7941 38.0364 12.784 38.0564 13.1716 39.189C13.6572 40.6087 14.2844 41.5855 15.4893 42.7995C17.3865 44.7112 19.9177 45.6672 22.6675 45.5107C23.4427 45.4667 24.4604 45.3114 24.9296 45.1653C27.3527 44.4119 29.4694 42.6579 30.5524 40.5064L31.0144 39.5881L31.6424 39.6812C32.0456 39.741 32.5034 39.9511 32.9213 40.2677C33.279 40.5391 33.9987 40.9641 34.5204 41.2122C35.0421 41.4603 35.415 41.6963 35.3494 41.7366C34.9879 41.9574 32.8061 42.1344 31.9535 42.0121L31.0337 41.88L30.4935 42.9228C29.7767 44.306 28.101 45.9798 26.7297 46.6826C24.8245 47.6586 22.641 48.0493 20.7299 47.7553Z" fill="#C65760"/>
<path d="M47.8514 47.7586C46.8698 47.5951 45.8394 47.2372 44.7426 46.6793C43.4373 46.0151 41.6998 44.3081 41.0406 43.0423C40.7762 42.5342 40.5895 42.0923 40.6265 42.0602C40.6631 42.028 41.1449 41.9619 41.6969 41.9134L42.6999 41.825L43.1418 42.6882C43.682 43.7435 44.5988 44.8731 45.5586 45.6647C46.491 46.4348 48.3298 47.319 49.4115 47.5179C49.9416 47.6154 50.1964 47.7167 50.0862 47.7856C49.8701 47.9214 48.7477 47.9077 47.8514 47.7586ZM37.5514 42.0095C34.8457 41.5881 33.6253 40.9992 31.892 39.2791C29.8649 37.2671 29.1036 35.4264 29.1179 32.5734C29.125 31.2377 29.1856 30.8069 29.4996 29.8626C29.9292 28.5714 30.9142 27.0044 31.9072 26.0317C32.4798 25.4711 32.8085 25.2196 33.7607 24.6136C33.7876 24.5964 33.6514 24.3763 33.4584 24.1245C32.8976 23.3935 32.1439 21.8007 31.7983 20.617C31.3354 19.0313 31.3371 16.0074 31.8012 14.4147C32.9514 10.4715 36.2128 7.31976 40.1603 6.33685C41.4968 6.00396 43.6899 5.82823 44.046 6.02546C44.2596 6.14348 44.2007 6.18292 43.6841 6.26835C42.9635 6.38741 41.9979 6.74543 40.8578 7.31628C38.6124 8.44054 36.6152 10.5727 35.6045 12.9251C34.871 14.6332 34.702 15.4933 34.702 17.5217C34.702 19.5539 34.8705 20.4095 35.6104 22.1318C36.5466 24.3104 38.4788 26.4396 40.5727 27.6001L41.6901 28.2193L41.9104 29.2571C42.2253 30.7423 42.6453 31.7525 43.431 32.9138C44.6674 34.742 46.7773 36.2968 48.6977 36.7943C49.2101 36.9272 49.6894 37.0881 49.7625 37.1521C49.8357 37.2161 49.2984 37.2684 48.5673 37.2684C46.8841 37.2684 45.2647 36.8804 43.7652 36.1177C42.4611 35.4545 40.5605 33.6783 39.8236 32.4337C39.2771 31.511 38.7033 29.9285 38.5616 28.9535C38.4573 28.2377 38.4544 28.2343 37.4803 27.6962C36.9435 27.3994 36.0527 26.7935 35.5011 26.3496L34.4985 25.5427L33.7271 26.3667C32.7887 27.3689 32.0968 28.57 31.6629 29.9497C31.1828 31.4778 31.2106 33.8547 31.7273 35.4042C32.1249 36.5968 32.7534 37.7215 33.5778 38.7165C34.7137 40.0874 36.9977 41.4134 38.7899 41.7427C39.6567 41.902 39.6857 41.9188 39.2443 42.0071C38.76 42.1041 38.1643 42.1048 37.5514 42.0095ZM55.3592 22.7623C51.4399 22.1557 48.1036 19.5116 46.655 15.8647C45.6889 13.4315 45.6763 10.3135 46.6226 7.82693C47.0081 6.8145 48.1217 5.12923 49.0394 4.16976C50.3275 2.82282 52.8331 1.41587 54.3776 1.17209C54.8888 1.09145 54.8434 1.1329 53.8466 1.65864C52.6725 2.27818 51.0073 3.71437 50.1955 4.80823C48.5308 7.05101 47.7131 10.326 48.1621 12.9551C48.8015 16.7007 50.9842 19.617 54.3772 21.2589C55.8738 21.9831 56.8726 22.229 58.7064 22.3248L60.2425 22.405L59.4744 22.5833C58.4184 22.8285 56.3639 22.9179 55.3592 22.7623Z" fill="#3693A3"/>
</svg>
