<svg width="261" height="122" viewBox="0 0 261 122" fill="none" xmlns="http://www.w3.org/2000/svg">
<g clip-path="url(#clip0_75_117)">
<path d="M189.631 103.81C189.211 103.481 189.031 103.127 189.031 102.63C189.031 102.184 190.769 98.1876 193.707 91.8743C196.279 86.3488 198.311 81.7122 198.223 81.5697C198.135 81.4279 198.162 81.3727 198.283 81.4477C198.517 81.5915 202.139 73.9989 202.08 73.4877C202.062 73.3241 202.103 73.2458 202.172 73.3146C202.241 73.3834 202.852 72.2425 203.529 70.7792C204.207 69.3159 204.832 68.0536 204.917 67.9739C205.003 67.8943 206.161 67.7841 207.489 67.7291L209.906 67.629L210.604 69.0405C210.988 69.8168 211.631 70.8248 212.033 71.2801C212.433 71.7354 212.652 72.0776 212.518 72.0408C212.383 72.0033 207.85 78.9614 202.443 87.5027C197.036 96.0441 192.351 103.313 192.031 103.656C191.328 104.409 190.466 104.464 189.631 103.81ZM212.211 103.656C211.929 103.297 211.936 103.288 212.297 103.571C212.676 103.866 212.796 104.052 212.609 104.052C212.562 104.052 212.383 103.874 212.211 103.656ZM239.83 61.9975C239.832 61.4987 239.879 61.3214 239.934 61.6034C239.988 61.8854 239.986 62.2935 239.929 62.5102C239.872 62.727 239.827 62.4963 239.83 61.9975H239.83ZM164.475 61.5252C164.486 61.2611 164.54 61.2074 164.612 61.3882C164.678 61.5518 164.67 61.7474 164.594 61.8227C164.519 61.8981 164.465 61.7641 164.475 61.5252ZM254.108 56.3574C254.108 56.3103 254.287 56.1318 254.506 55.9607C254.867 55.6786 254.875 55.6867 254.592 56.0463C254.295 56.4239 254.108 56.544 254.108 56.3574ZM148.757 29.3932C148.757 29.3542 149.089 29.0227 149.496 28.6564L150.236 27.9906L149.567 28.7273C148.945 29.4142 148.757 29.5684 148.757 29.3932ZM254.989 28.8407C254.706 28.4812 254.714 28.4731 255.075 28.7552C255.294 28.9262 255.473 29.1048 255.473 29.1519C255.473 29.3384 255.286 29.2184 254.989 28.8407ZM149.23 19.5833C149.241 19.3192 149.295 19.2655 149.367 19.4463C149.433 19.61 149.425 19.8055 149.35 19.8808C149.273 19.9562 149.22 19.8223 149.23 19.5833ZM255.062 19.1487C255.067 18.7747 255.118 18.6491 255.176 18.8697C255.233 19.0902 255.229 19.3963 255.167 19.5498C255.105 19.7033 255.057 19.5228 255.062 19.1487ZM255.062 17.1083C255.067 16.7343 255.118 16.6087 255.176 16.8293C255.233 17.0498 255.229 17.3559 255.167 17.5094C255.105 17.6629 255.057 17.4824 255.062 17.1083ZM149.23 16.636C149.241 16.3719 149.295 16.3182 149.367 16.4991C149.433 16.6627 149.425 16.8582 149.35 16.9336C149.273 17.0089 149.22 16.875 149.23 16.636ZM180.256 5.14922L179.589 4.4124L180.328 5.07828C181.018 5.69897 181.172 5.88604 180.996 5.88604C180.957 5.88604 180.624 5.55447 180.256 5.14922ZM249.656 5.14922L248.988 4.4124L249.728 5.07828C250.135 5.4445 250.467 5.77608 250.467 5.81509C250.467 5.99025 250.279 5.83606 249.656 5.14922ZM155.014 4.75247C155.241 4.50309 155.477 4.29904 155.54 4.29904C155.603 4.29904 155.468 4.50309 155.242 4.75247C155.015 5.00186 154.778 5.2059 154.716 5.2059C154.654 5.2059 154.787 5.00186 155.014 4.75247ZM164.869 0.0633412C165.033 -0.00212887 165.23 0.00590485 165.305 0.0812558C165.381 0.156606 165.247 0.210172 165.007 0.200332C164.742 0.189488 164.688 0.135746 164.869 0.0633595V0.0633412Z" fill="#ECECEC"/>
<path d="M212.766 103.94C212.198 103.544 202.308 87.9729 202.413 87.641C202.51 87.3377 205.971 81.8641 206.03 81.9213C206.356 82.2362 215.426 102.207 215.426 102.61C215.426 103.314 214.474 104.279 213.78 104.279C213.49 104.279 213.033 104.127 212.766 103.94ZM197.769 80.6659C197.427 80.124 196.006 77.8919 194.613 75.7048L192.079 71.7285L192.817 70.7171C193.224 70.1609 193.779 69.2326 194.051 68.6547L194.546 67.6034L196.965 67.7209C198.296 67.7856 199.422 67.8713 199.469 67.9116C199.516 67.9518 200.15 69.2592 200.88 70.8173L202.205 73.6492L200.371 77.5722C199.363 79.7294 198.505 81.5301 198.465 81.573C198.426 81.616 198.113 81.2077 197.769 80.6659ZM255.054 18.1285C255.054 17.8167 255.105 17.6892 255.168 17.8451C255.232 18.0009 255.232 18.256 255.168 18.4119C255.105 18.5677 255.054 18.4402 255.054 18.1285ZM188.065 8.45638C188.221 8.39347 188.477 8.39347 188.633 8.45638C188.789 8.51929 188.662 8.57075 188.349 8.57075C188.036 8.57075 187.908 8.51922 188.065 8.45638ZM191.947 8.45154C192.111 8.38604 192.307 8.39409 192.383 8.46947C192.458 8.54478 192.324 8.59835 192.084 8.58854C191.819 8.5777 191.765 8.52392 191.947 8.45154Z" fill="#DBDBDB"/>
<path d="M226.077 77.1457C226.242 77.0802 226.438 77.0884 226.514 77.1634C226.589 77.239 226.455 77.2929 226.215 77.2827C225.95 77.2718 225.896 77.2179 226.077 77.1457ZM234.653 73.2199C234.879 72.9704 235.116 72.7666 235.179 72.7666C235.241 72.7666 235.107 72.9704 234.881 73.2199C234.654 73.4693 234.418 73.6731 234.355 73.6731C234.292 73.6731 234.427 73.4693 234.653 73.2199ZM213.134 72.5962L212.581 71.9726L213.208 72.5226C213.793 73.0365 213.938 73.2199 213.759 73.2199C213.719 73.2199 213.437 72.9391 213.134 72.5962ZM235.449 72.4538C235.449 72.4068 235.629 72.2282 235.847 72.0571C236.208 71.7749 236.217 71.7831 235.934 72.143C235.636 72.5206 235.449 72.6405 235.449 72.4538ZM208.329 67.6238C208.494 67.5583 208.69 67.5664 208.766 67.6417C208.841 67.717 208.707 67.7706 208.467 67.7607C208.202 67.7499 208.148 67.6962 208.329 67.6238ZM242.56 61.0477C242.779 60.9907 243.138 60.9907 243.357 61.0477C243.575 61.1047 243.397 61.1514 242.958 61.1514C242.52 61.1514 242.341 61.1047 242.56 61.0477ZM253.311 56.8965C253.538 56.6471 253.774 56.443 253.837 56.443C253.9 56.443 253.765 56.6471 253.539 56.8965C253.313 57.1459 253.076 57.3498 253.013 57.3498C252.951 57.3498 253.085 57.1459 253.311 56.8965ZM255.701 54.5437C255.701 54.4966 255.88 54.3181 256.099 54.147C256.46 53.8649 256.468 53.873 256.185 54.2326C255.888 54.6102 255.701 54.7303 255.701 54.5437ZM260.042 45.4285C260.053 45.1644 260.107 45.1107 260.179 45.2915C260.245 45.4553 260.237 45.6508 260.162 45.7261C260.085 45.8015 260.032 45.6676 260.042 45.4285ZM260.304 43.5204C260.304 43.084 260.351 42.9055 260.408 43.1236C260.466 43.3419 260.466 43.6989 260.408 43.9171C260.351 44.1353 260.304 43.9568 260.304 43.5204ZM260.309 40.9132C260.312 40.4144 260.358 40.2371 260.412 40.5191C260.467 40.8011 260.465 41.2092 260.407 41.4259C260.351 41.6427 260.306 41.4119 260.309 40.9132ZM255.566 29.6342L255.132 29.1241L255.644 29.556C255.925 29.7935 256.156 30.0231 256.156 30.0661C256.156 30.2475 255.973 30.1136 255.566 29.6342ZM194.966 28.1984C194.977 27.9343 195.031 27.8805 195.103 28.0614C195.169 28.225 195.161 28.4206 195.085 28.496C195.009 28.5713 194.956 28.4373 194.966 28.1984ZM253.863 27.9339L253.312 27.3104L253.937 27.8601C254.522 28.3738 254.668 28.5573 254.489 28.5573C254.448 28.5573 254.167 28.2768 253.863 27.9339ZM194.966 26.6114C194.977 26.3473 195.031 26.2935 195.103 26.4744C195.169 26.6381 195.161 26.8336 195.085 26.9089C195.009 26.9843 194.956 26.8504 194.966 26.6114ZM254.809 20.4901C254.82 20.226 254.874 20.1723 254.946 20.3532C255.012 20.5168 255.004 20.7124 254.928 20.7877C254.852 20.863 254.798 20.7291 254.809 20.4901ZM254.809 15.7292C254.82 15.4651 254.874 15.4114 254.946 15.5922C255.012 15.7558 255.004 15.9514 254.928 16.0267C254.852 16.1021 254.798 15.9682 254.809 15.7292ZM201.546 13.0553C201.546 13.0082 201.726 12.8297 201.945 12.6585C202.305 12.3765 202.313 12.3845 202.03 12.7441C201.733 13.1218 201.546 13.2419 201.546 13.0553ZM250.559 6.28278L250.126 5.77268L250.638 6.20456C250.92 6.4421 251.15 6.67165 251.15 6.71467C251.15 6.89609 250.967 6.76215 250.559 6.28278ZM248.618 4.35572C248.335 3.99614 248.343 3.98812 248.704 4.27013C249.083 4.5663 249.204 4.75247 249.016 4.75247C248.969 4.75247 248.79 4.57393 248.618 4.35572ZM240.185 0.290052C240.349 0.224581 240.546 0.232615 240.621 0.307966C240.697 0.383317 240.563 0.436891 240.323 0.427042C240.058 0.416198 240.004 0.362456 240.185 0.29007V0.290052ZM234.952 0.0633412C235.116 -0.00212887 235.312 0.00590485 235.388 0.0812558C235.464 0.156606 235.33 0.210172 235.09 0.200332C234.825 0.189488 234.771 0.135746 234.952 0.0633595V0.0633412ZM238.579 0.0681646C238.735 0.0052651 238.991 0.0052651 239.147 0.0681646C239.303 0.131064 239.176 0.182516 238.863 0.182516C238.55 0.182516 238.422 0.131024 238.579 0.0681646Z" fill="#CBCBCB"/>
<path d="M178.171 77.1435C178.392 77.0856 178.699 77.0897 178.853 77.1517C179.008 77.2137 178.826 77.2608 178.451 77.2567C178.075 77.2512 177.949 77.2008 178.171 77.1435ZM181.466 77.1503C181.622 77.0876 181.878 77.0876 182.034 77.1503C182.191 77.2137 182.063 77.2648 181.75 77.2648C181.437 77.2648 181.309 77.2137 181.466 77.1503ZM170.01 73.6164L169.577 73.1066L170.088 73.5387C170.57 73.9443 170.704 74.1269 170.522 74.1269C170.479 74.1269 170.249 73.8972 170.01 73.6164ZM176.341 73.0044C173.575 72.2574 171.177 70.8779 169.236 68.917C167.274 66.9359 166.251 65.3328 165.459 62.9975C164.827 61.1379 164.844 61.105 166.506 60.8853C168.023 60.6848 170.637 59.7634 172.35 58.8255L173.801 58.0306L175.117 58.5826C179.568 60.449 184.494 60.2448 188.967 58.0083C191.395 56.7947 191.797 56.3334 189.896 56.9444C186.764 57.9507 181.965 57.6874 178.91 56.3416L177.596 55.7626L176.431 56.4152C169.976 60.0287 161.965 59.6776 155.893 55.515C153.17 53.6484 150.273 49.9948 149.126 46.981C148.03 44.105 147.79 42.5603 147.918 39.213C148.045 35.8844 148.456 34.1436 149.716 31.6181C150.446 30.1561 151.933 27.8737 152.151 27.8832C152.224 27.8864 152.634 28.4043 153.063 29.034C156.337 33.8416 163.572 36.8801 169.757 36.0445C173.029 35.6023 177.505 33.7269 178.867 32.2273C179.258 31.7977 179.2 31.803 177.93 32.3141C170.657 35.2413 161.662 32.7831 156.939 26.5772C155.582 24.7947 154.176 21.9984 153.659 20.0558C153.112 17.997 152.984 14.4923 153.376 12.3387C153.971 9.08137 155.581 5.74771 157.629 3.53384C158.127 2.99542 158.485 2.50564 158.425 2.44545C158.202 2.22272 162.385 0.690453 164.239 0.316277C171.144 -1.07786 178.915 2.24079 182.757 8.22457C183.212 8.93354 183.616 9.51361 183.655 9.51361C183.693 9.51361 184.535 9.29797 185.525 9.03434C190.132 7.80766 196.135 8.6986 200.192 11.2111C202.203 12.4569 202.188 12.3436 200.567 14.0279C198.081 16.6101 196.525 19.3539 195.605 22.7763C194.919 25.3277 194.92 29.5252 195.606 32.0715C196.145 34.0704 197.104 36.2506 198.176 37.918C198.56 38.5151 198.835 39.0315 198.788 39.0656C198.741 39.0998 198.165 39.5118 197.51 39.9812C195.803 41.2034 194.187 43.1044 193.124 45.1399C189.97 51.18 190.968 58.104 195.725 63.1995L196.425 63.9479L195.481 63.7975L194.537 63.6472L193.783 65.1577C192.018 68.6908 188.582 71.5608 184.619 72.8136C182.494 73.4849 178.464 73.5783 176.341 73.0044ZM190.624 73.1346C190.624 73.0875 190.803 72.909 191.023 72.7379C191.383 72.4557 191.391 72.4639 191.108 72.8231C190.811 73.2007 190.624 73.3206 190.624 73.1346ZM195.815 67.624C195.979 67.5585 196.175 67.5665 196.251 67.6418C196.327 67.7172 196.193 67.7708 195.952 67.7609C195.687 67.7501 195.634 67.6964 195.815 67.624ZM199.228 67.624C199.392 67.5585 199.588 67.5665 199.664 67.6418C199.74 67.7172 199.605 67.7708 199.366 67.7609C199.101 67.7501 199.046 67.6964 199.228 67.624ZM164.703 64.0192C164.714 63.7551 164.767 63.7014 164.84 63.8822C164.905 64.0458 164.898 64.2414 164.822 64.3167C164.746 64.3921 164.692 64.2581 164.703 64.0192ZM160.76 61.054C160.916 60.9911 161.172 60.9911 161.328 61.054C161.485 61.1169 161.357 61.1683 161.044 61.1683C160.731 61.1683 160.603 61.1169 160.76 61.054ZM149.41 55.593C149.128 55.2334 149.135 55.2254 149.496 55.5074C149.715 55.6785 149.894 55.857 149.894 55.9041C149.894 56.0908 149.708 55.9707 149.41 55.593ZM148.045 54.006C147.762 53.6465 147.77 53.6384 148.131 53.9204C148.35 54.0915 148.53 54.2701 148.53 54.3172C148.53 54.5037 148.343 54.3837 148.045 54.006ZM143.997 44.0684C144.008 43.8043 144.061 43.7506 144.134 43.9314C144.199 44.0951 144.191 44.2906 144.116 44.366C144.04 44.4413 143.986 44.3075 143.997 44.0684ZM144.014 40.3466C144.014 40.0348 144.066 39.9073 144.129 40.0632C144.193 40.219 144.193 40.4741 144.129 40.63C144.066 40.7858 144.014 40.6583 144.014 40.3466ZM148.074 30.2856C148.074 30.2385 148.253 30.06 148.473 29.8888C148.833 29.6069 148.841 29.6149 148.558 29.9744C148.261 30.3521 148.074 30.4722 148.074 30.2856ZM149.265 18.1287C149.265 17.6923 149.311 17.5137 149.369 17.732C149.426 17.9502 149.426 18.3072 149.369 18.5255C149.311 18.7436 149.265 18.5651 149.265 18.1287Z" fill="#E8A0C8"/>
<path d="M225.612 77.1216C225.799 76.9962 225.411 76.8381 224.513 76.6711C222.75 76.3446 219.754 74.8929 218.234 73.6286C216.669 72.3275 215.176 70.4743 214.294 68.7377L213.572 67.3158L212.053 67.4523C211.217 67.5275 210.406 67.6283 210.25 67.6765C210.093 67.7248 209.965 67.6585 209.965 67.5294C209.965 67.4001 209.777 67.3539 209.547 67.4265C208.825 67.6549 205.74 66.9309 204.007 66.1262C199.934 64.235 197.113 61.0627 195.697 56.7829C194.855 54.239 194.809 50.3366 195.592 47.8277C196.299 45.5625 197.426 43.5906 198.955 41.9453L200.212 40.5924L201.846 41.9172C202.745 42.6459 204.196 43.6407 205.071 44.1279C206.658 45.0114 206.663 45.017 206.833 46.1922C207.063 47.7929 207.999 50.3912 208.889 51.9059C210.09 53.9493 213.187 56.8655 215.312 57.9544C217.756 59.2066 220.394 59.8435 223.137 59.8435C224.328 59.8435 225.204 59.7577 225.085 59.6527C224.966 59.5476 224.185 59.2833 223.35 59.0652C220.221 58.2484 216.782 55.6958 214.767 52.6942C213.488 50.7876 212.803 49.1291 212.29 46.6907L211.931 44.9868L210.11 43.9701C206.698 42.0648 203.549 38.5692 202.024 34.9923C200.819 32.1648 200.544 30.7599 200.544 27.4235C200.544 24.0933 200.819 22.6813 202.015 19.8769C203.661 16.0148 206.915 12.5141 210.575 10.6683C212.429 9.73298 214.006 9.14336 215.172 8.94919C215.868 8.83318 216.074 8.72359 215.854 8.58496C215.681 8.47584 215.61 8.38506 215.696 8.38315C215.979 8.37674 219.166 9.07214 220.022 9.32718L220.863 9.57793L220.446 10.3957C218.98 13.2667 218.404 18.4225 219.166 21.8385C220.886 29.5412 226.875 35.0202 234.71 36.0591C236.689 36.3214 238.357 36.2361 240.797 35.7477L242.162 35.4743L239.659 35.3234C236.642 35.1414 235.015 34.7346 232.604 33.5592C227.075 30.8636 223.519 26.0757 222.477 19.9261C221.745 15.6096 223.078 10.2328 225.79 6.5506C227.099 4.77501 229.818 2.40368 231.622 1.46476C232.538 0.987957 233.339 0.537894 233.402 0.464615C233.788 0.0120046 237.491 -0.0792266 239.729 0.308742C245.791 1.35968 250.611 4.92665 253.182 10.2636C254.328 12.641 254.763 14.3125 254.936 16.9948C255.142 20.1835 254.506 23.4521 253.16 26.1219L252.731 26.9741L253.59 27.7077C257.915 31.4018 260.264 36.4294 260.288 42.0466C260.305 45.8849 259.546 48.7606 257.712 51.8114C255.755 55.0675 253.156 57.4466 249.671 59.1717C247.272 60.3588 244.744 60.9763 242.022 61.0396L239.835 61.0904L239.705 62.9041C239.23 69.5195 234.462 75.1683 228.054 76.7059C225.835 77.2382 225.301 77.3288 225.612 77.1216ZM205.144 67.6236C205.308 67.5581 205.504 67.5662 205.58 67.6415C205.656 67.7169 205.521 67.7704 205.282 67.7605C205.017 67.7497 204.962 67.696 205.144 67.6236V67.6236ZM195.601 63.0742C195.318 62.7146 195.326 62.7065 195.687 62.9886C195.906 63.1597 196.085 63.3382 196.085 63.3853C196.085 63.5719 195.898 63.4518 195.601 63.0742ZM194.983 27.4235C194.983 27.1119 195.035 26.9843 195.098 27.1402C195.161 27.296 195.161 27.5511 195.098 27.7069C195.035 27.8628 194.983 27.7353 194.983 27.4235ZM199.726 14.8688C199.726 14.8217 199.905 14.6431 200.124 14.472C200.485 14.19 200.493 14.198 200.21 14.5576C199.912 14.9352 199.726 15.0553 199.726 14.8688Z" fill="#77D7E6"/>
<path d="M177.775 77.0611C172.625 76.2637 168.353 73.061 166.149 68.3453C165.345 66.6227 164.685 63.8705 164.685 62.2337V61.204L163.376 61.1991C154.333 61.1681 146.731 55.2267 144.526 46.4673C143.929 44.0921 143.977 39.9928 144.634 37.5121C145.574 33.9579 148.111 29.8575 150.657 27.779L151.701 26.9269L151.161 25.8658C149.922 23.4293 149.553 21.6555 149.553 18.1282C149.553 15.3139 149.63 14.5962 150.087 13.1405C151.417 8.90196 153.845 5.52239 157.217 3.21398C158.661 2.22537 158.773 2.29704 157.661 3.49861C155.58 5.74794 153.974 9.06056 153.376 12.3381C152.984 14.4918 153.112 17.9966 153.659 20.0552C154.176 21.9978 155.582 24.7941 156.939 26.5766C161.662 32.7825 170.657 35.2408 177.93 32.3136C179.2 31.8025 179.258 31.7971 178.867 32.2268C178.192 32.9702 175.602 34.4025 173.66 35.1061C169.871 36.4786 165.828 36.5256 161.775 35.2443C158.482 34.2033 154.793 31.5734 153.063 29.0334C152.634 28.4037 152.224 27.8859 152.151 27.8826C151.934 27.8731 150.446 30.1556 149.716 31.6176C148.456 34.1431 148.045 35.8839 147.918 39.2125C147.79 42.5597 148.03 44.1045 149.126 46.9805C150.273 49.9943 153.17 53.6479 155.893 55.5145C161.965 59.6771 169.976 60.0281 176.431 56.4147L177.596 55.7621L178.91 56.341C181.965 57.6868 186.764 57.9502 189.896 56.9439C191.797 56.3328 191.395 56.7942 188.967 58.0078C184.494 60.2442 179.568 60.4485 175.117 58.5821L173.801 58.0301L172.35 58.825C170.637 59.7629 168.023 60.6843 166.506 60.8847C164.844 61.1045 164.827 61.1374 165.459 62.997C166.25 65.3279 167.272 66.9315 169.236 68.9246C172.327 72.0632 176.452 73.6328 180.933 73.3759C182.196 73.3036 183.854 73.0487 184.619 72.8088C188.567 71.5718 192.017 68.6922 193.781 65.1599L194.534 63.6522L195.558 63.8051C196.214 63.9032 196.96 64.2481 197.641 64.7679C198.224 65.2135 199.397 65.9113 200.247 66.3186C201.097 66.726 201.705 67.1134 201.598 67.1795C201.009 67.542 197.454 67.8327 196.064 67.6318L194.566 67.4149L193.685 69.127C192.517 71.398 189.787 74.1461 187.552 75.2999C184.448 76.9023 180.889 77.5437 177.775 77.0611Z" fill="#C65760"/>
<path d="M221.971 77.0664C220.371 76.7979 218.692 76.2104 216.905 75.2943C214.778 74.2038 211.946 71.4013 210.872 69.3232C210.441 68.4889 210.137 67.7635 210.197 67.7106C210.257 67.6579 211.042 67.5494 211.942 67.4697L213.576 67.3246L214.296 68.7418C215.176 70.4743 216.67 72.3289 218.234 73.6286C219.754 74.8929 222.75 76.3446 224.513 76.6711C225.377 76.8313 225.792 76.9976 225.612 77.1107C225.26 77.3336 223.431 77.3111 221.971 77.0664ZM205.186 67.6274C200.777 66.9356 198.789 65.9687 195.964 63.1448C192.661 59.8414 191.421 56.8194 191.444 52.1353C191.455 49.9424 191.554 49.2351 192.066 47.6848C192.766 45.5649 194.371 42.9921 195.989 41.3953C196.922 40.4748 197.458 40.0619 199.009 39.0669C199.053 39.0387 198.831 38.6774 198.517 38.264C197.603 37.0638 196.375 34.4487 195.812 32.5054C195.057 29.902 195.06 24.9373 195.816 22.3225C197.691 15.8485 203.005 10.674 209.438 9.06028C211.615 8.51373 215.189 8.22523 215.77 8.54904C216.118 8.74281 216.022 8.80755 215.18 8.94782C214.006 9.14329 212.432 9.73107 210.574 10.6683C206.915 12.5141 203.661 16.0148 202.014 19.8769C200.819 22.6813 200.543 24.0933 200.543 27.4235C200.543 30.7599 200.818 32.1648 202.024 34.9923C203.549 38.5691 206.698 42.0649 210.11 43.9701L211.931 44.9868L212.29 46.6907C212.803 49.1291 213.487 50.7875 214.767 52.6942C216.782 55.6958 220.22 58.2484 223.35 59.0651C224.185 59.2833 224.966 59.5476 225.085 59.6527C225.204 59.7577 224.328 59.8435 223.137 59.8435C220.394 59.8435 217.755 59.2066 215.312 57.9544C213.187 56.8655 210.09 53.9493 208.889 51.9059C207.998 50.3912 207.063 47.7929 206.833 46.1922C206.663 45.0169 206.658 45.0114 205.071 44.1279C204.196 43.6407 202.744 42.6459 201.845 41.9172L200.212 40.5924L198.955 41.9453C197.426 43.5906 196.298 45.5625 195.591 47.8277C194.809 50.3366 194.854 54.239 195.696 56.7829C196.344 58.741 197.368 60.5875 198.711 62.2211C200.562 64.4717 204.284 66.6488 207.205 67.1894C208.617 67.451 208.664 67.4786 207.945 67.6236C207.156 67.7828 206.185 67.7842 205.186 67.6276V67.6274ZM234.205 36.0276C227.818 35.0316 222.382 30.6905 220.021 24.703C218.447 20.7082 218.426 15.5892 219.968 11.5067C220.596 9.84449 222.411 7.07761 223.906 5.50235C226.005 3.29096 230.088 0.981036 232.605 0.580795C233.438 0.448401 233.364 0.516449 231.74 1.37961C229.827 2.39677 227.113 4.7547 225.79 6.55059C223.078 10.2328 221.745 15.6096 222.477 19.926C223.519 26.0757 227.075 30.8636 232.604 33.5592C235.043 34.7482 236.671 35.152 239.659 35.3092L242.162 35.4409L240.911 35.7337C239.19 36.1362 235.842 36.283 234.205 36.0276Z" fill="#3693A3"/>
<g filter="url(#filter0_i_75_117)">
<path d="M9.98102 56.4607C9.50149 56.4607 9.18179 56.3653 9.02197 56.1745C8.86215 56.0155 8.76624 55.8246 8.73425 55.602C8.70226 55.3793 8.67034 55.2203 8.63834 55.1249C8.51045 54.5523 8.44653 53.8526 8.44653 53.0256C8.44653 52.2623 8.46249 51.6102 8.49449 51.0695C8.49449 49.4156 8.52648 47.4913 8.59039 45.2967C8.65431 43.0702 8.73425 41.4799 8.83016 40.5258L9.06992 37.1384C9.45354 31.8585 9.64535 28.8846 9.64535 28.2167C9.64535 25.704 9.6933 23.8274 9.78921 22.587C9.85312 21.7282 10.3007 21.2988 11.1319 21.2988C11.3876 21.2988 11.6274 21.3147 11.8512 21.3465C12.075 21.3784 12.2508 21.3942 12.3787 21.3942L16.4546 21.3465C17.158 21.3465 17.6694 21.4261 17.9891 21.5851C18.3408 21.7123 18.6125 21.9509 18.8043 22.3007C19.124 22.9687 19.5236 23.8274 20.0031 24.877L21.7774 28.6938L24.0312 33.6079C24.4468 34.4985 24.9902 35.6753 25.6616 37.1384C26.3329 38.6015 26.8124 39.6193 27.1002 40.1918C27.6436 41.305 27.9953 41.9889 28.1551 42.2433L30.9843 47.7776L30.8884 45.0104L30.6966 40.3349V38.9036C30.6966 37.1543 30.7286 35.389 30.7925 33.6079C30.7925 32.272 30.7766 31.1906 30.7446 30.3636L30.6966 26.7377L30.8884 22.1576C30.8884 21.6805 31.1282 21.442 31.6077 21.442C31.7675 21.442 32.0872 21.4897 32.5668 21.5851C32.8545 21.6487 33.1582 21.6805 33.4779 21.6805C33.7976 21.6805 34.0533 21.6805 34.2451 21.6805C34.5008 21.6805 34.6607 21.7123 34.7246 21.7759C34.8205 21.8395 34.8685 21.9509 34.8685 22.1099C34.8685 22.2371 34.8525 22.3803 34.8205 22.5393C34.7886 22.6983 34.7726 22.8732 34.7726 23.0641L34.7246 27.1671L34.6287 36.8044L34.5808 38.188C34.5808 39.2694 34.5967 40.2554 34.6287 41.146C34.6607 42.0366 34.6927 42.7681 34.7246 43.3406C34.8205 44.7083 34.8685 45.8533 34.8685 46.7757C34.8685 46.6484 34.9165 48.5409 35.0124 52.4531L35.1083 55.1249V55.2203C35.1083 55.8564 34.8046 56.1426 34.1972 56.079C34.1013 56.0472 33.9094 56.0313 33.6217 56.0313L32.2311 56.079H31.9434C31.7196 56.079 31.5438 56.0313 31.4159 55.9359C31.32 55.8405 31.1441 55.5701 30.8884 55.1249C30.7925 54.9022 30.6646 54.5842 30.5048 54.1707C30.345 53.7572 30.1532 53.296 29.9294 52.7871C28.5547 49.352 27.5637 47.0142 26.9563 45.7738C26.253 44.4379 24.4787 40.6053 21.6335 34.2758C20.9942 32.9718 20.2749 31.5882 19.4757 30.1251L18.085 27.6442L18.2289 32.1766L18.2768 34.9915C18.3408 37.0907 18.3728 38.4742 18.3728 39.1422C18.3728 41.7503 18.4207 44.3743 18.5166 47.0142L18.5646 50.7356C18.5646 51.4035 18.5966 52.3736 18.6605 53.6459L18.7564 55.3157V55.4111C18.7564 55.7292 18.6764 55.9359 18.5166 56.0313C18.3568 56.1268 18.133 56.1745 17.8453 56.1745L16.7903 56.2222C16.119 56.3176 15.3997 56.3653 14.6324 56.3653C13.7373 56.3653 13.002 56.3812 12.4266 56.413L9.98102 56.4607Z" fill="white"/>
<path d="M59.5537 56.3175C57.7954 56.2539 56.5966 56.238 55.9572 56.2698C55.5736 56.3016 55.3338 56.2221 55.2379 56.0312C55.174 55.8404 55.142 55.6177 55.142 55.3633C55.174 55.0771 55.19 54.8703 55.19 54.7431L55.2379 54.0752C53.7674 54.8067 52.5526 55.3474 51.5935 55.6973C50.6345 56.0154 49.4037 56.1744 47.9012 56.1744C46.4306 56.1744 45.1999 55.9517 44.2088 55.5064C43.2498 55.0293 42.3546 54.2183 41.5235 53.0733C40.948 52.3735 40.5324 51.3239 40.2767 49.9244C40.0529 48.525 39.941 47.3004 39.941 46.2508V29.9342C39.941 29.5525 39.989 29.298 40.0849 29.1708C40.2128 29.0118 40.4046 28.9004 40.6603 28.8368C40.7562 28.805 40.9321 28.7891 41.1878 28.7891L42.6264 28.8368C43.1698 28.8368 43.4416 29.1072 43.4416 29.6479L43.2977 36.4704C43.2018 38.3787 43.1538 39.9373 43.1538 41.1459L43.1059 44.4855C43.1059 47.4117 43.3137 49.3201 43.7293 50.2107C44.1449 51.0376 44.5125 51.6579 44.8322 52.0714C45.1838 52.453 45.6314 52.7393 46.1749 52.9301C46.7503 53.0891 47.5655 53.1687 48.6205 53.1687C49.7393 53.1687 50.8902 52.962 52.0731 52.5485C53.2878 52.1032 54.3748 51.5943 55.3338 51.0217C55.4298 48.7317 55.4777 45.901 55.4777 42.5295C55.4777 39.5396 55.4138 36.2636 55.2859 32.7013L55.19 29.2185C55.19 28.8368 55.4617 28.646 56.0052 28.646H57.0122C57.2679 28.646 57.5876 28.6619 57.9713 28.6937C58.3549 28.6937 58.7864 28.6778 59.266 28.646H59.5057C59.8574 28.646 60.0332 28.7891 60.0332 29.0754V30.7929L60.0812 33.083C60.241 38.1402 60.305 41.0505 60.273 41.8138V54.5523C60.305 54.7431 60.3209 54.9975 60.3209 55.3156C60.3209 55.6973 60.257 55.9517 60.1291 56.079C60.0332 56.238 59.8414 56.3175 59.5537 56.3175Z" fill="white"/>
<path d="M71.7716 56.413C69.3739 56.413 67.4877 55.7927 66.1131 54.5523C64.7385 53.3119 64.0511 51.1808 64.0511 48.1592C64.0511 45.2012 64.9622 43.1339 66.7844 41.957C68.6389 40.7801 70.7488 40.0645 73.1143 39.8101L75.368 39.5238C76.8703 39.3011 78.0054 39.1898 78.7727 39.1898V38.5696L78.5329 36.0887C78.3733 34.562 78.0534 33.5601 77.5739 33.083C77.0943 32.5741 76.4387 32.3197 75.6078 32.3197C75.0002 32.3197 73.9137 32.6855 72.347 33.417C70.7803 34.1168 69.2301 34.9914 67.6955 36.041C67.6636 36.0728 67.5996 36.0887 67.5037 36.0887C67.3759 36.0887 67.232 35.9774 67.0721 35.7548C66.8164 35.3731 66.6086 34.8483 66.4487 34.1803C66.3848 33.8941 66.241 33.5601 66.0172 33.1784C65.8254 32.7968 65.7294 32.5105 65.7294 32.3197C65.7294 32.1288 65.9213 31.9062 66.3049 31.6517C68.0952 30.4749 69.5657 29.6002 70.7166 29.0277C71.8997 28.4552 72.9224 28.0735 73.7856 27.8827C74.6487 27.6919 75.6236 27.5964 76.7107 27.5964C80.1311 27.5964 82.6411 28.7733 84.2393 31.1269C84.5592 31.604 84.8147 32.1288 85.0065 32.7014C85.1984 33.2739 85.358 33.8305 85.4861 34.3712C85.6457 34.8801 85.7416 35.2141 85.7738 35.3731C86.2855 37.4723 86.4931 39.8419 86.3972 42.4818C86.3972 44.8354 86.365 46.5689 86.3013 47.6821C86.3013 48.3501 86.365 49.352 86.4931 50.6878C86.6212 52.1509 86.6691 53.28 86.6369 54.0752L86.6849 54.6477C86.6849 55.3792 86.3972 55.745 85.8217 55.745C85.4381 55.745 84.7031 55.7769 83.6159 55.8405C82.5287 55.904 81.7457 55.9359 81.2662 55.9359C80.9463 55.9359 80.6586 55.9518 80.4031 55.9836C80.1476 56.0154 79.9078 56.0313 79.6838 56.0313C79.5557 56.0313 79.4283 55.9836 79.3002 55.8882C79.2043 55.7609 79.1563 55.6178 79.1563 55.4588L79.0604 54.8863C79.0282 54.8544 78.9967 54.7908 78.9645 54.6954C78.9645 54.6 78.9323 54.5205 78.8686 54.4569C77.0786 55.7609 74.7124 56.413 71.7716 56.413ZM71.292 51.8806C72.8265 51.8806 74.2494 51.7216 75.5598 51.4035C76.8703 51.0854 77.9417 50.6401 78.7727 50.0676L78.6768 46.2508C77.5896 46.06 76.7587 45.9487 76.1832 45.9169C75.64 45.8533 74.7926 45.8215 73.6417 45.8215C72.2669 45.8215 70.9564 46.0759 69.7096 46.5848C68.4948 47.0937 67.8394 48.1751 67.7435 49.8291C67.6796 50.3697 67.9193 50.8468 68.4628 51.2603C69.0061 51.6738 69.9494 51.8806 71.292 51.8806Z" fill="white"/>
<path d="M100.431 63.5217C97.7455 63.5217 95.2362 62.7107 92.9023 61.0885C92.8386 61.0249 92.8064 60.9454 92.8064 60.85L92.9023 60.3252C93.0304 60.0071 93.1421 59.7208 93.238 59.4664C93.3661 59.2437 93.4777 59.037 93.5736 58.8462C93.638 58.5281 93.7976 58.4009 94.0532 58.4645C94.469 58.6235 94.8368 58.7826 95.1561 58.9416C95.476 59.1006 95.7637 59.2279 96.0192 59.3233C97.0742 59.8322 97.9853 60.2139 98.7525 60.4683C99.552 60.7546 100.351 60.8977 101.15 60.8977C102.972 60.8977 104.411 60.2457 105.466 58.9416C106.521 57.6376 107.065 55.9518 107.096 53.8844V53.1211C105.338 53.789 103.26 54.123 100.862 54.123C98.5929 54.123 96.7228 53.5346 95.252 52.3577C93.7819 51.1808 92.7105 49.6541 92.0391 47.7776C91.4 45.8692 91.0801 43.8177 91.0801 41.6231C91.0801 40.0328 91.3041 38.2039 91.7514 36.1365C92.1994 34.0373 93.142 32.113 94.5806 30.3636C96.0192 28.5825 98.1134 27.6919 100.862 27.6919C103.388 27.6919 105.514 28.2485 107.24 29.3617V28.7415C107.24 28.5507 107.257 28.4075 107.288 28.3121C107.353 28.2167 107.48 28.1531 107.672 28.1213C108.055 28.0577 108.36 28.0259 108.583 28.0259C108.966 28.0259 109.271 28.0417 109.494 28.0736C109.718 28.1054 109.862 28.1213 109.926 28.1213H110.117C110.278 28.1213 110.405 28.169 110.501 28.2644C110.597 28.328 110.645 28.4711 110.645 28.6938C110.645 29.0436 110.581 30.3 110.453 32.4628L110.213 37.2815C110.182 37.8222 110.182 38.5697 110.213 39.5238C110.245 40.4462 110.261 41.3209 110.261 42.1479L110.309 43.6746V50.7356C110.309 54.9658 109.542 58.1464 108.007 60.2775C106.473 62.4403 103.948 63.5217 100.431 63.5217ZM100.575 52.31C101.821 52.31 103.037 51.9124 104.219 51.1173C105.402 50.3221 106.361 49.177 107.096 47.6822V47.4913C107.096 46.3781 107.113 45.5671 107.144 45.0582C107.176 44.8037 107.192 43.9131 107.192 42.3864L107.096 38.2834L107.192 33.4647C106.649 32.5741 105.818 31.9222 104.699 31.5087C103.612 31.0634 102.429 30.8407 101.15 30.8407C98.497 30.8407 96.4508 31.7949 95.0122 33.7033C93.5736 35.6117 92.8543 38.2357 92.8543 41.5754C92.8543 43.3883 93.1742 45.1217 93.8134 46.7757C94.4847 48.4296 95.4123 49.7655 96.5946 50.7833C97.7777 51.8011 99.1046 52.31 100.575 52.31Z" fill="white"/>
<path d="M126.698 56.9378C121.903 56.9378 118.706 55.3316 117.107 52.1191C115.509 48.8749 114.71 45.408 114.71 41.7185C114.71 38.1561 115.253 35.3095 116.34 33.1785C117.427 31.0157 118.738 29.5048 120.272 28.6461C121.839 27.7873 123.405 27.3579 124.972 27.3579C127.913 27.3579 130.118 28.2008 131.589 29.8865C133.092 31.5722 134.051 33.5443 134.466 35.8025C134.914 38.029 135.138 40.4462 135.138 43.0543C135.138 43.277 134.978 43.4201 134.658 43.4837C133.603 43.4837 131.173 43.6587 127.369 44.0085C126.762 44.0721 126.027 44.1517 125.164 44.2471C124.3 44.3107 123.341 44.3743 122.286 44.4379C122.574 47.5231 124.252 49.0657 127.321 49.0657C128.344 49.0657 129.128 48.9703 129.671 48.7795C130.247 48.5886 131.158 48.1911 132.404 47.5867C132.628 47.5867 132.82 47.714 132.98 47.9684C133.172 48.2228 133.427 48.7476 133.747 49.5428C133.843 49.7018 133.955 50.004 134.083 50.4493C134.242 50.8946 134.386 51.2285 134.514 51.4512C135.122 52.9779 135.41 53.7731 135.377 53.8367C135.314 53.9639 135.138 54.1388 134.85 54.3615C134.179 55.0294 133.092 55.6178 131.589 56.1267C130.118 56.6674 128.488 56.9378 126.698 56.9378ZM127.849 41.1937C127.593 37.5677 126.714 35.7548 125.211 35.7548C124.316 35.7548 123.629 36.2796 123.15 37.3292C122.67 38.347 122.382 39.7942 122.286 41.6708L127.849 41.1937Z" fill="white"/>
<path d="M17.7014 113.665C16.071 113.665 14.6004 113.299 13.2898 112.567C12.011 111.836 10.9241 110.754 10.029 109.323C8.36659 106.651 7.53543 103.136 7.53543 98.7791C7.53543 96.7753 7.77519 95.0578 8.25472 93.6265C8.73425 92.1632 9.48553 90.7796 10.5085 89.4758C11.4676 88.2674 12.5066 87.3609 13.6254 86.7563C14.8402 86.1204 16.0551 85.8022 17.2698 85.8022C18.8363 85.8022 20.0831 85.9296 21.0102 86.1838C21.9372 86.4381 22.5287 86.6766 22.7844 86.8995C23.0721 87.1223 23.4557 87.472 23.9353 87.9491L24.0312 80.077C24.0312 79.2503 24.1111 78.6614 24.2709 78.3118C24.4308 77.9301 24.7025 77.7392 25.0861 77.7392L27.1961 77.787C27.7395 77.787 28.1551 77.7549 28.4428 77.6915C28.8584 77.6282 29.1462 77.819 29.306 78.2641C29.4658 78.6778 29.5457 79.1385 29.5457 79.6476L29.4498 112.281C29.4498 112.695 29.3539 112.981 29.1621 113.14C29.0023 113.299 28.7465 113.378 28.3949 113.378C27.276 113.315 26.1251 113.283 24.9423 113.283C24.4308 113.283 24.0632 113.219 23.8394 113.092C23.6476 112.965 23.5517 112.663 23.5517 112.186V111.231C22.5926 111.963 21.6335 112.552 20.6745 112.997C19.7154 113.442 18.7244 113.665 17.7014 113.665ZM17.5576 110.373C18.7404 110.373 19.7954 110.15 20.7224 109.705C21.6495 109.26 22.3528 108.671 22.8324 107.939C23.3439 107.208 23.5996 106.46 23.5996 105.697C23.5996 104.934 23.6635 103.821 23.7914 102.357L23.8873 100.258C23.8873 99.5902 23.8553 98.7158 23.7914 97.6341C23.7275 96.3616 23.6955 95.1055 23.6955 93.8651C23.6955 93.0383 23.3918 92.3063 22.7844 91.6704C22.177 91.0345 21.4258 90.5411 20.5306 90.1914C19.6355 89.8418 18.8043 89.6666 18.0371 89.6666C17.046 89.6666 16.103 89.9372 15.2079 90.4777C14.3127 91.0502 13.5775 91.7815 13.002 92.6723C12.3307 93.7219 11.8352 94.7395 11.5155 95.7257C11.1958 96.712 11.036 97.857 11.036 99.1608C11.036 102.405 11.5475 105.013 12.5705 106.985C13.6893 109.243 15.3517 110.373 17.5576 110.373Z" fill="white"/>
<path d="M46.3865 114.189C41.5913 114.189 38.3944 112.583 36.796 109.371C35.1975 106.126 34.3984 102.659 34.3984 98.9699C34.3984 95.4074 34.9418 92.5612 36.0288 90.4299C37.1156 88.2673 38.4264 86.7563 39.9609 85.8975C41.5273 85.0388 43.0938 84.6094 44.6603 84.6094C47.6013 84.6094 49.8072 85.4525 51.2777 87.138C52.7802 88.8235 53.7393 90.7959 54.1549 93.054C54.6024 95.2806 54.8262 97.6975 54.8262 100.306C54.8262 100.529 54.6663 100.672 54.3467 100.735C53.2917 100.735 50.8621 100.91 47.0579 101.26C46.4505 101.323 45.7152 101.403 44.8521 101.499C43.9889 101.562 43.0299 101.626 41.9749 101.689C42.2626 104.775 43.941 106.317 47.0099 106.317C48.0329 106.317 48.8161 106.222 49.3596 106.031C49.9351 105.84 50.8462 105.443 52.0929 104.838C52.3167 104.838 52.5085 104.966 52.6684 105.22C52.8602 105.474 53.1159 105.999 53.4356 106.794C53.5315 106.953 53.6434 107.256 53.7713 107.701C53.9311 108.146 54.075 108.48 54.2028 108.703C54.8102 110.229 55.0979 111.025 55.066 111.088C55.002 111.216 54.8262 111.39 54.5385 111.613C53.8672 112.281 52.7802 112.869 51.2777 113.378C49.8072 113.919 48.1768 114.189 46.3865 114.189ZM47.5374 98.4451C47.2816 94.8192 46.4025 93.0063 44.9 93.0063C44.0049 93.0063 43.3176 93.5311 42.838 94.5807C42.3585 95.5982 42.0708 97.0459 41.9749 98.9222L47.5374 98.4451Z" fill="white"/>
<path d="M80.8737 113.665C79.2433 113.665 77.7725 113.299 76.462 112.567C75.1831 111.836 74.0959 110.754 73.2012 109.323C71.5387 106.651 70.7077 103.136 70.7077 98.7791C70.7077 96.7753 70.9475 95.0578 71.427 93.6265C71.9065 92.1632 72.6573 90.7796 73.6808 89.4758C74.6398 88.2674 75.6783 87.3609 76.7977 86.7563C78.0123 86.1204 79.2269 85.8022 80.4421 85.8022C82.0081 85.8022 83.2549 85.9296 84.1824 86.1838C85.1093 86.4381 85.7005 86.6766 85.9567 86.8995C86.2444 87.1223 86.628 87.472 87.1075 87.9491L87.2035 80.077C87.2035 79.2503 87.2829 78.6614 87.4432 78.3118C87.6028 77.9301 87.8748 77.7392 88.2584 77.7392L90.3683 77.787C90.9116 77.787 91.3274 77.7549 91.6151 77.6915C92.0302 77.6282 92.318 77.819 92.4783 78.2641C92.6379 78.6778 92.718 79.1385 92.718 79.6476L92.6221 112.281C92.6221 112.695 92.5262 112.981 92.3344 113.14C92.1741 113.299 91.9186 113.378 91.5672 113.378C90.4478 113.315 89.2969 113.283 88.1146 113.283C87.6028 113.283 87.235 113.219 87.0116 113.092C86.8198 112.965 86.7239 112.663 86.7239 112.186V111.231C85.7649 111.963 84.8058 112.552 83.8468 112.997C82.8877 113.442 81.8965 113.665 80.8737 113.665ZM80.7298 110.373C81.9122 110.373 82.9672 110.15 83.8947 109.705C84.8216 109.26 85.5251 108.671 86.0046 107.939C86.5157 107.208 86.7719 106.46 86.7719 105.697C86.7719 104.934 86.8356 103.821 86.9637 102.357L87.0596 100.258C87.0596 99.5902 87.0274 98.7158 86.9637 97.6341C86.8993 96.3616 86.8678 95.1055 86.8678 93.8651C86.8678 93.0383 86.5636 92.3063 85.9567 91.6704C85.3491 91.0345 84.5976 90.5411 83.7029 90.1914C82.8076 89.8418 81.9766 89.6666 81.2094 89.6666C80.2181 89.6666 79.2748 89.9372 78.3801 90.4777C77.4848 91.0502 76.7497 91.7815 76.1743 92.6723C75.503 93.7219 75.007 94.7395 74.6878 95.7257C74.3679 96.712 74.2083 97.857 74.2083 99.1608C74.2083 102.405 74.7193 105.013 75.7427 106.985C76.8614 109.243 78.524 110.373 80.7298 110.373Z" fill="white"/>
<path d="M108.839 114.189C104.619 114.189 101.806 112.583 100.399 109.371C98.993 106.126 98.2894 102.659 98.2894 98.9699C98.2894 95.4074 98.8334 92.5612 99.9198 90.4299C101.007 88.2673 102.317 86.7563 103.852 85.8975C105.419 85.0388 106.985 84.6094 108.551 84.6094C111.493 84.6094 113.714 85.3884 115.217 86.9471C116.72 88.4738 117.679 90.3025 118.094 92.4337C118.51 94.5329 118.717 96.9028 118.717 99.5425C118.717 101.674 118.35 103.884 117.614 106.174C116.912 108.432 115.809 110.34 114.306 111.899C112.836 113.426 111.013 114.189 108.839 114.189ZM108.503 104.934C109.558 104.934 110.326 104.441 110.805 103.455C111.317 102.468 111.572 101.276 111.572 99.8764C111.572 98.0635 111.333 96.791 110.853 96.0597C110.406 95.2963 109.719 94.9146 108.791 94.9146C106.809 94.9146 105.818 96.6956 105.818 100.258C105.818 101.594 105.994 102.707 106.346 103.598C106.698 104.489 107.417 104.934 108.503 104.934Z" fill="white"/>
<path d="M131.85 113.903C130.092 113.903 128.557 113.33 127.247 112.185C125.968 111.04 124.977 109.434 124.274 107.367C123.602 105.3 123.267 102.914 123.267 100.21C123.267 99.5744 123.315 97.7771 123.411 94.8191C123.474 93.9924 123.506 93.4355 123.506 93.1493L123.458 92.1951C123.458 91.5905 123.442 90.7795 123.411 89.7619C123.378 88.7123 123.363 87.3921 123.363 85.802C123.363 85.5791 123.522 85.4524 123.842 85.4203C124.641 85.3569 125.616 85.3092 126.767 85.2772C127.95 85.2452 129.021 85.2295 129.98 85.2295C130.236 85.2295 130.395 85.2772 130.46 85.3726C130.523 85.436 130.555 85.5635 130.555 85.7543L130.508 86.5654L130.555 87.5673C130.555 88.394 130.508 89.2528 130.412 90.1436C130.316 91.0023 130.268 91.5428 130.268 91.7657C130.268 92.529 130.316 93.4676 130.412 94.5806C130.443 95.0256 130.475 95.5347 130.508 96.1073C130.539 96.6798 130.555 97.2843 130.555 97.9202L130.508 101.451C130.508 103.422 130.747 104.838 131.227 105.697C131.706 106.524 132.617 106.937 133.96 106.937C134.375 106.937 134.871 106.842 135.447 106.651C136.054 106.428 136.581 106.158 137.029 105.84C137.061 104.409 137.077 102.882 137.077 101.26C137.077 100.497 137.093 99.7966 137.125 99.1607C137.157 98.5248 137.189 97.9679 137.221 97.4908C137.317 96.155 137.365 94.8988 137.365 93.7218C137.365 93.2447 137.3 92.3382 137.173 91.0023C137.045 89.4756 136.981 88.3306 136.981 87.5673C136.981 87.4398 136.965 87.1535 136.933 86.7085C136.933 86.2314 137.013 85.8817 137.173 85.6589C137.333 85.4047 137.588 85.2772 137.94 85.2772C138.068 85.2772 138.388 85.3092 138.899 85.3726C139.443 85.436 139.986 85.468 140.53 85.468C141.137 85.468 141.664 85.4524 142.112 85.4203C142.592 85.3883 142.959 85.3726 143.215 85.3726C143.695 85.3726 143.934 85.5635 143.934 85.9451C143.934 85.9772 143.918 86.0562 143.886 86.1837C143.886 86.2791 143.886 86.4543 143.886 86.7085L143.934 89.7142C144.062 93.7852 144.126 96.7275 144.126 98.5404L144.078 100.687L144.126 104.647C144.19 106.874 144.222 108.527 144.222 109.609C144.222 110.722 144.206 111.502 144.174 111.947L144.222 112.615C144.222 112.996 144.094 113.187 143.838 113.187C143.614 113.187 143.294 113.172 142.879 113.14C142.464 113.108 141.952 113.092 141.345 113.092L139.235 113.14C138.947 113.172 138.612 113.187 138.228 113.187C138.068 113.187 137.924 113.155 137.796 113.092C137.7 112.996 137.652 112.885 137.652 112.758L137.461 112.281C136.757 112.821 136.006 113.219 135.207 113.474C134.407 113.76 133.289 113.903 131.85 113.903Z" fill="white"/>
<path d="M159.463 113.855C157.897 113.855 156.299 113.394 154.668 112.472C153.07 111.518 151.695 109.928 150.544 107.701C149.426 105.474 148.866 102.564 148.866 98.97C148.866 93.3723 149.921 89.5556 152.031 87.5197C154.173 85.4839 156.555 84.4663 159.176 84.4663C161.669 84.4663 163.539 84.8637 164.786 85.659C166.033 86.4544 166.88 87.1857 167.328 87.8537C167.807 88.4896 168.111 88.8876 168.239 89.0464C168.527 89.3647 168.67 89.6189 168.67 89.8098C168.67 89.9686 168.607 90.1117 168.479 90.2392C168.351 90.3666 168.223 90.462 168.095 90.5254C167.968 90.5888 167.855 90.6529 167.759 90.7163C167.536 90.8117 166.8 91.2411 165.553 92.0044C164.339 92.7357 163.652 93.1338 163.492 93.1972L163.108 93.2926C162.916 93.2926 162.741 93.1972 162.58 93.0063C162.453 92.7834 162.357 92.6246 162.293 92.5292C162.005 92.0842 161.717 91.7338 161.43 91.4796C161.174 91.1934 160.806 91.0502 160.327 91.0502C159.336 91.0502 158.552 91.6071 157.977 92.72C157.402 93.833 157.114 95.8055 157.114 98.636C157.114 100.29 157.242 101.642 157.497 102.691C157.785 103.741 158.121 104.504 158.504 104.981C158.888 105.426 159.272 105.649 159.655 105.649C160.167 105.649 160.566 105.538 160.854 105.315C161.174 105.061 161.446 104.6 161.669 103.932C161.861 103.296 162.213 102.978 162.724 102.978C162.885 102.978 163.076 103.01 163.3 103.073C163.524 103.136 163.668 103.168 163.731 103.168C164.243 103.327 164.962 103.518 165.889 103.741C166.817 103.932 167.663 104.091 168.431 104.218C168.622 104.25 168.751 104.345 168.814 104.504C168.879 104.663 168.91 104.886 168.91 105.172C168.91 105.458 168.894 105.665 168.862 105.792C168.831 106.174 168.735 106.636 168.574 107.176C166.913 111.629 163.875 113.855 159.463 113.855Z" fill="white"/>
<path d="M183.548 114.189C178.753 114.189 175.556 112.583 173.958 109.371C172.359 106.126 171.56 102.659 171.56 98.9699C171.56 95.4074 172.104 92.5612 173.19 90.4299C174.277 88.2673 175.588 86.7563 177.122 85.8975C178.689 85.0388 180.256 84.6094 181.822 84.6094C184.763 84.6094 186.969 85.4525 188.439 87.138C189.942 88.8235 190.901 90.7959 191.316 93.054C191.764 95.2806 191.988 97.6975 191.988 100.306C191.988 100.529 191.828 100.672 191.508 100.735C190.453 100.735 188.024 100.91 184.219 101.26C183.613 101.323 182.877 101.403 182.014 101.499C181.15 101.562 180.191 101.626 179.136 101.689C179.424 104.775 181.103 106.317 184.171 106.317C185.195 106.317 185.978 106.222 186.521 106.031C187.097 105.84 188.008 105.443 189.254 104.838C189.478 104.838 189.67 104.966 189.83 105.22C190.022 105.474 190.278 105.999 190.597 106.794C190.693 106.953 190.805 107.256 190.933 107.701C191.093 108.146 191.237 108.48 191.364 108.703C191.972 110.229 192.26 111.025 192.228 111.088C192.164 111.216 191.988 111.39 191.7 111.613C191.029 112.281 189.942 112.869 188.439 113.378C186.969 113.919 185.339 114.189 183.548 114.189ZM184.699 98.4451C184.443 94.8192 183.565 93.0063 182.062 93.0063C181.167 93.0063 180.479 93.5311 180 94.5807C179.52 95.5982 179.232 97.0459 179.136 98.9222L184.699 98.4451Z" fill="white"/>
<path d="M204.716 113.903C202.957 113.903 201.423 113.33 200.112 112.185C198.833 111.04 197.842 109.434 197.139 107.367C196.468 105.3 196.132 102.914 196.132 100.21C196.132 99.5744 196.18 97.7771 196.276 94.8191C196.34 93.9924 196.372 93.4355 196.372 93.1493L196.324 92.1951C196.324 91.5905 196.308 90.7795 196.276 89.7619C196.244 88.7123 196.228 87.3921 196.228 85.802C196.228 85.5791 196.388 85.4524 196.708 85.4203C197.506 85.3569 198.482 85.3092 199.633 85.2772C200.815 85.2452 201.887 85.2295 202.846 85.2295C203.101 85.2295 203.261 85.2772 203.325 85.3726C203.389 85.436 203.421 85.5635 203.421 85.7543L203.373 86.5654L203.421 87.5673C203.421 88.394 203.373 89.2528 203.277 90.1436C203.181 91.0023 203.133 91.5428 203.133 91.7657C203.133 92.529 203.181 93.4676 203.277 94.5806C203.309 95.0256 203.341 95.5347 203.373 96.1073C203.405 96.6798 203.421 97.2843 203.421 97.9202L203.373 101.451C203.373 103.422 203.613 104.838 204.092 105.697C204.572 106.524 205.483 106.937 206.826 106.937C207.241 106.937 207.737 106.842 208.312 106.651C208.919 106.428 209.447 106.158 209.895 105.84C209.926 104.409 209.943 102.882 209.943 101.26C209.943 100.497 209.958 99.7966 209.991 99.1607C210.022 98.5248 210.054 97.9679 210.087 97.4908C210.182 96.155 210.23 94.8988 210.23 93.7218C210.23 93.2447 210.166 92.3382 210.039 91.0023C209.91 89.4756 209.847 88.3306 209.847 87.5673C209.847 87.4398 209.83 87.1535 209.799 86.7085C209.799 86.2314 209.878 85.8817 210.039 85.6589C210.198 85.4047 210.454 85.2772 210.806 85.2772C210.933 85.2772 211.253 85.3092 211.765 85.3726C212.308 85.436 212.851 85.468 213.395 85.468C214.002 85.468 214.53 85.4524 214.978 85.4203C215.457 85.3883 215.824 85.3726 216.081 85.3726C216.56 85.3726 216.8 85.5635 216.8 85.9451C216.8 85.9772 216.783 86.0562 216.752 86.1837C216.752 86.2791 216.752 86.4543 216.752 86.7085L216.8 89.7142C216.927 93.7852 216.992 96.7275 216.992 98.5404L216.944 100.687L216.992 104.647C217.055 106.874 217.088 108.527 217.088 109.609C217.088 110.722 217.071 111.502 217.04 111.947L217.088 112.615C217.088 112.996 216.96 113.187 216.704 113.187C216.48 113.187 216.16 113.172 215.745 113.14C215.329 113.108 214.817 113.092 214.21 113.092L212.101 113.14C211.813 113.172 211.477 113.187 211.094 113.187C210.933 113.187 210.789 113.155 210.662 113.092C210.566 112.996 210.518 112.885 210.518 112.758L210.326 112.281C209.623 112.821 208.871 113.219 208.073 113.474C207.273 113.76 206.154 113.903 204.716 113.903Z" fill="white"/>
<path d="M229.596 113.283C229.564 113.283 229.308 113.251 228.829 113.187C228.381 113.124 227.774 113.092 227.006 113.092L223.314 113.139C222.834 113.139 222.595 112.949 222.595 112.567C222.595 112.44 222.595 112.01 222.595 111.279C222.627 110.548 222.643 109.291 222.643 107.51C222.643 105.697 222.691 103.947 222.786 102.262C222.915 100.576 222.978 99.6377 222.978 99.4469L223.266 90.8115L223.314 85.8974C223.314 85.5477 223.394 85.3569 223.554 85.3249C223.714 85.3249 224.065 85.3406 224.609 85.3726C225.153 85.4046 225.84 85.4203 226.671 85.4203C227.31 85.4203 227.934 85.4046 228.541 85.3726C229.181 85.3406 229.564 85.3249 229.692 85.3249C229.788 85.3249 229.868 85.3883 229.931 85.5157C230.027 85.6111 230.075 85.6909 230.075 85.7543L230.171 87.0901C231.258 86.3902 232.521 85.802 233.959 85.3249C235.43 84.8157 236.549 84.5615 237.316 84.5615C237.508 84.5615 237.636 84.5772 237.7 84.6092C237.764 84.6413 237.828 84.7844 237.892 85.0386C237.987 85.2615 238.068 85.4523 238.131 85.6111C238.451 86.4065 238.659 87.3607 238.755 88.4737C238.787 88.9828 238.867 89.571 238.994 90.2389C239.059 90.5252 239.09 90.8749 239.09 91.2886C239.09 91.5428 239.075 91.6859 239.042 91.7179C238.787 92.0996 238.403 92.3702 237.892 92.529C237.381 92.6565 236.629 92.7832 235.638 92.9107C234.391 93.0381 233.32 93.229 232.425 93.4832L230.315 93.9603L230.363 95.8687C230.363 96.9183 230.379 97.4588 230.411 97.4908L230.459 101.546C230.523 103.645 230.555 106.508 230.555 110.134C230.555 111.533 230.491 112.472 230.363 112.949C230.363 113.172 230.107 113.283 229.596 113.283Z" fill="white"/>
<path d="M249.402 113.569C248.347 113.569 247.277 113.378 246.189 112.997C245.102 112.615 244.143 112.201 243.312 111.756C242.513 111.279 242.034 110.961 241.874 110.802C241.586 110.548 241.522 110.309 241.682 110.086C241.81 109.832 242.033 109.45 242.353 108.941C242.673 108.432 242.896 108.178 243.025 108.178H243.12C243.184 108.178 243.249 108.194 243.312 108.226C243.376 108.258 243.456 108.337 243.552 108.464C243.648 108.56 243.76 108.671 243.888 108.798C244.239 109.148 244.975 109.529 246.094 109.943C247.212 110.357 248.123 110.563 248.827 110.563C248.986 110.563 249.546 110.579 250.505 110.611C251.496 110.643 252.327 110.34 252.999 109.705C253.702 109.037 254.054 108.019 254.054 106.651C254.054 105.76 253.67 104.997 252.903 104.361C252.168 103.725 251.033 102.962 249.498 102.071L247.724 100.974C245.87 99.9875 244.399 98.9066 243.312 97.7295C242.257 96.5211 241.73 94.9624 241.73 93.054C241.73 90.5097 242.609 88.5216 244.367 87.0903C246.126 85.659 248.347 84.9434 251.033 84.9434C253.367 84.9434 255.093 85.4048 256.212 86.3269C257.362 87.2177 257.97 87.6948 258.034 87.7582C258.29 87.917 258.417 88.1079 258.417 88.3307C258.417 88.4262 258.369 88.5216 258.274 88.617C258.21 88.7124 257.986 89.0464 257.602 89.6189C257.251 90.1594 256.995 90.4299 256.835 90.4299C256.707 90.4299 256.531 90.3502 256.307 90.1914L256.02 89.9529C255.956 89.8895 255.46 89.5078 254.533 88.8078C253.606 88.1079 252.487 87.7582 251.177 87.7582C249.258 87.7582 247.836 88.0922 246.909 88.7601C245.982 89.4281 245.518 90.3822 245.518 91.6227C245.518 92.6403 245.918 93.5154 246.717 94.2467C247.516 94.978 248.555 95.646 249.834 96.2505L251.081 96.7753C252.423 97.2845 253.59 97.8406 254.581 98.4452C255.604 99.0497 256.499 99.9562 257.267 101.165C258.066 102.342 258.465 103.852 258.465 105.697C258.465 108.75 257.554 110.834 255.732 111.947C253.942 113.029 251.832 113.569 249.402 113.569Z" fill="white"/>
</g>
</g>
<defs>
<filter id="filter0_i_75_117" x="3.53543" y="21.2988" width="254.93" height="96.8904" filterUnits="userSpaceOnUse" color-interpolation-filters="sRGB">
<feFlood flood-opacity="0" result="BackgroundImageFix"/>
<feBlend mode="normal" in="SourceGraphic" in2="BackgroundImageFix" result="shape"/>
<feColorMatrix in="SourceAlpha" type="matrix" values="0 0 0 0 0 0 0 0 0 0 0 0 0 0 0 0 0 0 127 0" result="hardAlpha"/>
<feOffset dx="-4" dy="4"/>
<feGaussianBlur stdDeviation="3.5"/>
<feComposite in2="hardAlpha" operator="arithmetic" k2="-1" k3="1"/>
<feColorMatrix type="matrix" values="0 0 0 0 0.858824 0 0 0 0 0.858824 0 0 0 0 0.858824 0 0 0 1 0"/>
<feBlend mode="normal" in2="shape" result="effect1_innerShadow_75_117"/>
</filter>
<clipPath id="clip0_75_117">
<rect width="261" height="122" fill="white"/>
</clipPath>
</defs>
</svg>
