<svg width="64" height="64" viewBox="0 0 64 64" fill="none" xmlns="http://www.w3.org/2000/svg">
<path d="M46.6667 12C41.4667 12 35.8667 13.0667 32.0001 16C28.1334 13.0667 22.5334 12 17.3334 12C13.4667 12 9.36008 12.5867 5.92008 14.1067C3.97341 14.9867 2.66675 16.88 2.66675 19.04V49.12C2.66675 52.5867 5.92008 55.1467 9.28008 54.2933C11.8934 53.6267 14.6667 53.3333 17.3334 53.3333C21.4934 53.3333 25.9201 54.0267 29.4934 55.7867C31.0934 56.5867 32.9067 56.5867 34.4801 55.7867C38.0534 54 42.4801 53.3333 46.6401 53.3333C49.3067 53.3333 52.0801 53.6267 54.6934 54.2933C58.0534 55.1733 61.3067 52.6133 61.3067 49.12V19.04C61.3067 16.88 60.0001 14.9867 58.0534 14.1067C54.6401 12.5867 50.5334 12 46.6667 12V12ZM56.0001 45.9467C56.0001 47.6267 54.4534 48.8533 52.8001 48.56C50.8001 48.1867 48.7201 48.0267 46.6667 48.0267C42.1334 48.0267 35.6001 49.76 32.0001 52.0267V21.3333C35.6001 19.0667 42.1334 17.3333 46.6667 17.3333C49.1201 17.3333 51.5468 17.5733 53.8668 18.08C55.0934 18.3467 56.0001 19.44 56.0001 20.6933V45.9467Z" fill="#E19698"/>
<path d="M37.2801 29.36C36.4268 29.36 35.6534 28.8267 35.3868 27.9733C35.0401 26.9333 35.6268 25.7867 36.6668 25.4667C40.7734 24.1333 46.0801 23.7067 50.9601 24.2667C52.0534 24.4 52.8534 25.3867 52.7201 26.48C52.5868 27.5733 51.6001 28.3733 50.5068 28.24C46.1868 27.7333 41.4668 28.1333 37.8934 29.28C37.6801 29.3067 37.4668 29.36 37.2801 29.36V29.36ZM37.2801 36.4533C36.4268 36.4533 35.6534 35.92 35.3868 35.0667C35.0401 34.0267 35.6268 32.88 36.6668 32.56C40.7468 31.2267 46.0801 30.8 50.9601 31.36C52.0534 31.4933 52.8534 32.48 52.7201 33.5733C52.5868 34.6667 51.6001 35.4667 50.5068 35.3333C46.1868 34.8267 41.4668 35.2267 37.8934 36.3733C37.6929 36.4244 37.487 36.4513 37.2801 36.4533V36.4533ZM37.2801 43.5467C36.4268 43.5467 35.6534 43.0133 35.3868 42.16C35.0401 41.12 35.6268 39.9733 36.6668 39.6533C40.7468 38.32 46.0801 37.8933 50.9601 38.4533C52.0534 38.5867 52.8534 39.5733 52.7201 40.6667C52.5868 41.76 51.6001 42.5333 50.5068 42.4267C46.1868 41.92 41.4668 42.32 37.8934 43.4667C37.6929 43.5178 37.487 43.5446 37.2801 43.5467V43.5467Z" fill="#E19698"/>
</svg>
