<svg width="64" height="64" viewBox="0 0 64 64" fill="none" xmlns="http://www.w3.org/2000/svg">
<path d="M39.5174 31.4533C40.8887 29.404 41.4486 26.9177 41.088 24.4784C40.7274 22.0391 39.4722 19.8212 37.5666 18.2562C35.661 16.6913 33.2413 15.8913 30.7784 16.0119C28.3156 16.1324 25.9856 17.165 24.242 18.9086C22.4984 20.6522 21.4659 22.9821 21.3453 25.445C21.2247 27.9079 22.0247 30.3276 23.5896 32.2331C25.1546 34.1387 27.3725 35.394 29.8118 35.7545C32.2512 36.1151 34.7374 35.5553 36.7867 34.184L43.3894 40.784L43.5681 40.9387L43.5894 40.9547C43.9813 41.2389 44.4656 41.3655 44.9464 41.3095C45.4272 41.2535 45.8694 41.0189 46.1855 40.6523C46.5015 40.2856 46.6682 39.8136 46.6527 39.3297C46.6371 38.8459 46.4404 38.3856 46.1014 38.04L39.5147 31.4533H39.5174ZM31.2641 19.8587C32.8741 19.8587 34.4182 20.4983 35.5567 21.6367C36.6952 22.7752 37.3347 24.3193 37.3347 25.9293C37.3347 27.5394 36.6952 29.0835 35.5567 30.2219C34.4182 31.3604 32.8741 32 31.2641 32C29.654 32 28.1099 31.3604 26.9715 30.2219C25.833 29.0835 25.1934 27.5394 25.1934 25.9293C25.1934 24.3193 25.833 22.7752 26.9715 21.6367C28.1099 20.4983 29.654 19.8587 31.2641 19.8587V19.8587ZM17.3334 5.33333C15.5653 5.33333 13.8696 6.03571 12.6194 7.28595C11.3691 8.5362 10.6667 10.2319 10.6667 12V52C10.6667 53.7681 11.3691 55.4638 12.6194 56.714C13.8696 57.9643 15.5653 58.6667 17.3334 58.6667H52.6667C53.1972 58.6667 53.7059 58.456 54.081 58.0809C54.456 57.7058 54.6667 57.1971 54.6667 56.6667C54.6667 56.1362 54.456 55.6275 54.081 55.2525C53.7059 54.8774 53.1972 54.6667 52.6667 54.6667H17.3334C16.6262 54.6667 15.9479 54.3857 15.4478 53.8856C14.9477 53.3855 14.6667 52.7072 14.6667 52H52.6667C53.1972 52 53.7059 51.7893 54.081 51.4142C54.456 51.0391 54.6667 50.5304 54.6667 50V12C54.6667 11.1245 54.4943 10.2576 54.1593 9.44878C53.8242 8.63994 53.3332 7.90501 52.7141 7.28595C52.0951 6.6669 51.3601 6.17583 50.5513 5.8408C49.7425 5.50577 48.8756 5.33333 48.0001 5.33333H17.3334ZM50.6667 48H14.6667V12C14.6667 11.2928 14.9477 10.6145 15.4478 10.1144C15.9479 9.61428 16.6262 9.33333 17.3334 9.33333H48.0001C48.7073 9.33333 49.3856 9.61428 49.8857 10.1144C50.3858 10.6145 50.6667 11.2928 50.6667 12V48Z" fill="#E19698"/>
</svg>
