<svg width="42" height="42" viewBox="0 0 42 42" fill="none" xmlns="http://www.w3.org/2000/svg">
<path d="M39.375 20.8852C39.375 20.795 39.375 20.6924 39.3709 20.5735C39.3668 20.2413 39.3586 19.868 39.3504 19.4702C39.3176 18.3258 39.2602 17.1856 39.1699 16.111C39.0469 14.6303 38.8664 13.3958 38.6203 12.4688C38.3606 11.5014 37.8516 10.6192 37.144 9.91023C36.4365 9.20127 35.5553 8.69042 34.5885 8.42876C33.4277 8.11704 31.1555 7.92427 27.9562 7.80532C26.4346 7.7479 24.8062 7.71099 23.1779 7.69048C22.6078 7.68228 22.0787 7.67817 21.6029 7.67407H20.3971C19.9213 7.67817 19.3922 7.68228 18.8221 7.69048C17.1937 7.71099 15.5654 7.7479 14.0437 7.80532C10.8445 7.92837 8.56816 8.12114 7.41152 8.42876C6.44438 8.68978 5.56282 9.20041 4.8552 9.90947C4.14758 10.6185 3.63874 11.5011 3.37969 12.4688C3.12949 13.3958 2.95312 14.6303 2.83008 16.111C2.73984 17.1856 2.68242 18.3258 2.64961 19.4702C2.6373 19.868 2.6332 20.2413 2.6291 20.5735C2.6291 20.6924 2.625 20.795 2.625 20.8852V21.1149C2.625 21.2051 2.625 21.3077 2.6291 21.4266C2.6332 21.7588 2.64141 22.1321 2.64961 22.5299C2.68242 23.6743 2.73984 24.8145 2.83008 25.8891C2.95312 27.3698 3.13359 28.6043 3.37969 29.5313C3.90469 31.496 5.44687 33.0463 7.41152 33.5713C8.56816 33.8831 10.8445 34.0758 14.0437 34.1948C15.5654 34.2522 17.1937 34.2891 18.8221 34.3096C19.3922 34.3178 19.9213 34.3219 20.3971 34.326H21.6029C22.0787 34.3219 22.6078 34.3178 23.1779 34.3096C24.8062 34.2891 26.4346 34.2522 27.9562 34.1948C31.1555 34.0717 33.4318 33.879 34.5885 33.5713C36.5531 33.0463 38.0953 31.5001 38.6203 29.5313C38.8705 28.6043 39.0469 27.3698 39.1699 25.8891C39.2602 24.8145 39.3176 23.6743 39.3504 22.5299C39.3627 22.1321 39.3668 21.7588 39.3709 21.4266C39.3709 21.3077 39.375 21.2051 39.375 21.1149V20.8852ZM36.4219 21.0985C36.4219 21.1846 36.4219 21.279 36.4178 21.3897C36.4137 21.7096 36.4055 22.0624 36.3973 22.4438C36.3686 23.5348 36.3111 24.6258 36.225 25.6389C36.1143 26.9596 35.9584 28.0424 35.7656 28.7684C35.5113 29.7159 34.7648 30.4665 33.8215 30.7167C32.9602 30.9463 30.7904 31.1309 27.8414 31.2417C26.3484 31.2991 24.7406 31.336 23.1369 31.3565C22.575 31.3647 22.0541 31.3688 21.5865 31.3688H20.4135L18.8631 31.3565C17.2594 31.336 15.6557 31.2991 14.1586 31.2417C11.2096 31.1268 9.03574 30.9463 8.17852 30.7167C7.23516 30.4624 6.48867 29.7159 6.23438 28.7684C6.0416 28.0424 5.88574 26.9596 5.775 25.6389C5.68887 24.6258 5.63555 23.5348 5.60273 22.4438C5.59043 22.0624 5.58633 21.7055 5.58223 21.3897C5.58223 21.279 5.57812 21.1805 5.57812 21.0985V20.9016C5.57812 20.8155 5.57813 20.7211 5.58223 20.6104C5.58633 20.2905 5.59453 19.9377 5.60273 19.5563C5.63145 18.4653 5.68887 17.3743 5.775 16.3612C5.88574 15.0405 6.0416 13.9577 6.23438 13.2317C6.48867 12.2842 7.23516 11.5336 8.17852 11.2834C9.03984 11.0538 11.2096 10.8692 14.1586 10.7584C15.6516 10.701 17.2594 10.6641 18.8631 10.6436C19.425 10.6354 19.9459 10.6313 20.4135 10.6313H21.5865L23.1369 10.6436C24.7406 10.6641 26.3443 10.701 27.8414 10.7584C30.7904 10.8733 32.9643 11.0538 33.8215 11.2834C34.7648 11.5377 35.5113 12.2842 35.7656 13.2317C35.9584 13.9577 36.1143 15.0405 36.225 16.3612C36.3111 17.3743 36.3645 18.4653 36.3973 19.5563C36.4096 19.9377 36.4137 20.2946 36.4178 20.6104C36.4178 20.7211 36.4219 20.8196 36.4219 20.9016V21.0985ZM17.3496 26.4961L26.8652 20.959L17.3496 15.504V26.4961Z" fill="white"/>
</svg>
