<svg width="64" height="64" viewBox="0 0 64 64" fill="none" xmlns="http://www.w3.org/2000/svg">
<path d="M12.2 12.2C12.9501 11.4501 13.9673 11.0289 15.028 11.0289C16.0886 11.0289 17.1058 11.4501 17.856 12.2L32 26.344L46.144 12.2C46.8984 11.4714 47.9088 11.0682 48.9576 11.0773C50.0063 11.0864 51.0096 11.5071 51.7512 12.2487C52.4929 12.9904 52.9135 13.9936 52.9226 15.0424C52.9318 16.0912 52.5286 17.1016 51.8 17.856L37.656 32L51.8 46.144C52.5286 46.8984 52.9318 47.9088 52.9226 48.9576C52.9135 50.0064 52.4929 51.0096 51.7512 51.7513C51.0096 52.4929 50.0063 52.9136 48.9576 52.9227C47.9088 52.9318 46.8984 52.5286 46.144 51.8L32 37.656L17.856 51.8C17.1015 52.5286 16.0911 52.9318 15.0423 52.9227C13.9936 52.9136 12.9903 52.4929 12.2487 51.7513C11.507 51.0096 11.0864 50.0064 11.0773 48.9576C11.0681 47.9088 11.4713 46.8984 12.2 46.144L26.344 32L12.2 17.856C11.4501 17.1059 11.0288 16.0887 11.0288 15.028C11.0288 13.9673 11.4501 12.9501 12.2 12.2Z" fill="white"/>
</svg>
