<svg width="265" height="124" viewBox="0 0 265 124" fill="none" xmlns="http://www.w3.org/2000/svg">
<g clip-path="url(#clip0_45_1698)">
<path d="M192.151 105.512C191.726 105.177 191.543 104.817 191.543 104.312C191.543 103.859 193.304 99.7972 196.282 93.3803C198.887 87.7643 200.947 83.0516 200.857 82.9068C200.768 82.7627 200.796 82.7066 200.918 82.7828C201.155 82.929 204.826 75.2119 204.766 74.6923C204.747 74.5261 204.789 74.4464 204.859 74.5164C204.929 74.5864 205.548 73.4267 206.234 71.9394C206.921 70.4521 207.554 69.1691 207.641 69.0882C207.727 69.0073 208.9 68.8952 210.246 68.8393L212.695 68.7376L213.403 70.1722C213.792 70.9613 214.444 71.9858 214.851 72.4486C215.257 72.9113 215.478 73.2591 215.342 73.2217C215.206 73.1836 210.612 80.2557 205.133 88.9371C199.655 97.6185 194.907 105.007 194.583 105.355C193.871 106.12 192.997 106.177 192.151 105.512ZM215.032 105.355C214.745 104.99 214.753 104.982 215.119 105.268C215.502 105.569 215.625 105.758 215.435 105.758C215.387 105.758 215.206 105.577 215.032 105.355ZM243.018 63.0138C243.02 62.5068 243.067 62.3266 243.122 62.6131C243.177 62.8998 243.175 63.3146 243.118 63.5349C243.06 63.7552 243.015 63.5207 243.017 63.0138H243.018ZM166.661 62.5337C166.672 62.2653 166.726 62.2107 166.8 62.3944C166.867 62.5608 166.858 62.7595 166.782 62.8361C166.706 62.9127 166.651 62.7766 166.661 62.5337ZM257.485 57.2812C257.485 57.2334 257.666 57.0519 257.888 56.878C258.254 56.5913 258.262 56.5995 257.976 56.965C257.674 57.3488 257.485 57.4709 257.485 57.2812ZM150.734 29.875C150.734 29.8353 151.071 29.4984 151.483 29.1261L152.233 28.4493L151.555 29.1982C150.924 29.8963 150.734 30.053 150.734 29.875ZM258.378 29.3134C258.091 28.948 258.099 28.9398 258.465 29.2265C258.687 29.4003 258.868 29.5818 258.868 29.6297C258.868 29.8193 258.679 29.6973 258.378 29.3134ZM151.213 19.9042C151.224 19.6358 151.279 19.5812 151.352 19.765C151.419 19.9314 151.411 20.1301 151.334 20.2067C151.257 20.2832 151.203 20.1472 151.213 19.9042ZM258.452 19.4625C258.457 19.0824 258.508 18.9547 258.567 19.1789C258.625 19.4031 258.621 19.7142 258.558 19.8702C258.495 20.0262 258.447 19.8428 258.452 19.4625ZM258.452 17.3887C258.457 17.0085 258.508 16.8808 258.567 17.1051C258.625 17.3292 258.621 17.6404 258.558 17.7964C258.495 17.9524 258.447 17.7689 258.452 17.3887ZM151.213 16.9086C151.224 16.6402 151.279 16.5856 151.352 16.7694C151.419 16.9358 151.411 17.1345 151.334 17.2111C151.257 17.2877 151.203 17.1516 151.213 16.9086ZM182.652 5.23353L181.975 4.48464L182.724 5.16143C183.423 5.7923 183.579 5.98243 183.402 5.98243C183.362 5.98243 183.025 5.64543 182.652 5.23353ZM252.974 5.23353L252.297 4.48464L253.047 5.16143C253.459 5.53366 253.796 5.87067 253.796 5.91033C253.796 6.08835 253.605 5.93163 252.974 5.23353ZM157.074 4.83029C157.304 4.57681 157.544 4.36942 157.607 4.36942C157.671 4.36942 157.535 4.57681 157.305 4.83029C157.075 5.08376 156.836 5.29114 156.772 5.29114C156.709 5.29114 156.845 5.08376 157.074 4.83029ZM167.06 0.0642829C167.227 -0.00226042 167.426 0.005905 167.502 0.0824912C167.579 0.159077 167.443 0.213521 167.2 0.203519C166.931 0.192497 166.877 0.137875 167.06 0.0643016V0.0642829Z" fill="#ECECEC"/>
<path d="M215.593 105.644C215.019 105.241 204.997 89.4151 205.103 89.0777C205.201 88.7695 208.708 83.2061 208.769 83.2643C209.099 83.5843 218.289 103.882 218.289 104.292C218.289 105.007 217.325 105.989 216.621 105.989C216.327 105.989 215.864 105.834 215.593 105.644ZM200.398 81.9882C200.051 81.4375 198.611 79.1688 197.199 76.9458L194.632 72.9044L195.38 71.8764C195.792 71.3111 196.355 70.3676 196.63 69.7801L197.131 68.7117L199.583 68.8311C200.931 68.8968 202.073 68.984 202.12 69.0249C202.167 69.0658 202.81 70.3946 203.549 71.9782L204.892 74.8565L203.034 78.8439C202.012 81.0364 201.143 82.8666 201.103 82.9103C201.063 82.9539 200.746 82.539 200.398 81.9882ZM258.444 18.4256C258.444 18.1088 258.496 17.9792 258.56 18.1376C258.624 18.296 258.624 18.5552 258.56 18.7137C258.496 18.8721 258.444 18.7425 258.444 18.4256ZM190.564 8.595C190.722 8.53106 190.982 8.53106 191.14 8.595C191.298 8.65894 191.169 8.71124 190.852 8.71124C190.535 8.71124 190.405 8.65887 190.564 8.595ZM194.498 8.59008C194.664 8.52351 194.863 8.53168 194.94 8.6083C195.016 8.68485 194.88 8.7393 194.637 8.72932C194.369 8.71831 194.314 8.66365 194.498 8.59008Z" fill="#DBDBDB"/>
<path d="M229.082 78.4103C229.249 78.3438 229.448 78.3521 229.524 78.4283C229.601 78.5052 229.464 78.5599 229.222 78.5495C228.953 78.5384 228.898 78.4837 229.082 78.4103ZM237.772 74.4201C238.001 74.1666 238.241 73.9594 238.304 73.9594C238.368 73.9594 238.232 74.1666 238.002 74.4201C237.773 74.6736 237.533 74.8808 237.469 74.8808C237.406 74.8808 237.542 74.6736 237.772 74.4201ZM215.966 73.7862L215.407 73.1524L216.041 73.7114C216.634 74.2337 216.781 74.4201 216.6 74.4201C216.559 74.4201 216.274 74.1347 215.966 73.7862ZM238.579 73.6415C238.579 73.5937 238.76 73.4122 238.982 73.2383C239.348 72.9515 239.356 72.9598 239.069 73.3256C238.768 73.7093 238.579 73.8313 238.579 73.6415ZM211.098 68.7323C211.265 68.6657 211.464 68.6739 211.54 68.7505C211.617 68.8271 211.481 68.8815 211.238 68.8715C210.969 68.8605 210.914 68.8059 211.098 68.7323ZM245.784 62.0484C246.006 61.9904 246.369 61.9904 246.591 62.0484C246.813 62.1063 246.631 62.1538 246.187 62.1538C245.744 62.1538 245.562 62.1063 245.784 62.0484ZM256.678 57.8291C256.907 57.5756 257.147 57.3682 257.211 57.3682C257.274 57.3682 257.138 57.5756 256.908 57.8291C256.679 58.0826 256.44 58.2899 256.376 58.2899C256.313 58.2899 256.449 58.0826 256.678 57.8291ZM259.099 55.4378C259.099 55.3899 259.281 55.2085 259.502 55.0345C259.868 54.7479 259.876 54.756 259.59 55.1215C259.288 55.5054 259.099 55.6274 259.099 55.4378ZM263.498 46.1732C263.509 45.9047 263.564 45.8501 263.637 46.0339C263.704 46.2003 263.695 46.3991 263.619 46.4756C263.542 46.5522 263.488 46.4161 263.498 46.1732ZM263.764 44.2337C263.764 43.7902 263.811 43.6087 263.869 43.8305C263.927 44.0523 263.927 44.4152 263.869 44.637C263.811 44.8588 263.764 44.6773 263.764 44.2337ZM263.768 41.5838C263.771 41.0768 263.818 40.8966 263.873 41.1832C263.929 41.4699 263.927 41.8846 263.868 42.1049C263.811 42.3253 263.766 42.0907 263.768 41.5838ZM258.962 30.1199L258.523 29.6014L259.041 30.0404C259.327 30.2818 259.56 30.5152 259.56 30.5589C259.56 30.7433 259.374 30.6071 258.962 30.1199ZM197.557 28.6606C197.568 28.3921 197.623 28.3375 197.696 28.5213C197.763 28.6876 197.755 28.8864 197.678 28.963C197.601 29.0396 197.547 28.9034 197.557 28.6606ZM257.237 28.3917L256.678 27.758L257.312 28.3167C257.905 28.8388 258.052 29.0254 257.871 29.0254C257.83 29.0254 257.545 28.7402 257.237 28.3917ZM197.557 27.0475C197.568 26.7791 197.623 26.7245 197.696 26.9083C197.763 27.0747 197.755 27.2734 197.678 27.35C197.601 27.4266 197.547 27.2905 197.557 27.0475ZM258.195 20.8259C258.206 20.5575 258.261 20.5029 258.335 20.6867C258.401 20.8531 258.393 21.0518 258.316 21.1284C258.24 21.205 258.185 21.0688 258.195 20.8259ZM258.195 15.9869C258.206 15.7185 258.261 15.6639 258.335 15.8477C258.401 16.014 258.393 16.2128 258.316 16.2894C258.24 16.3659 258.185 16.2299 258.195 15.9869ZM204.225 13.2692C204.225 13.2213 204.407 13.0399 204.629 12.8659C204.994 12.5793 205.002 12.5875 204.715 12.9529C204.414 13.3368 204.225 13.4588 204.225 13.2692ZM253.889 6.38568L253.451 5.86722L253.969 6.30618C254.254 6.54761 254.488 6.78092 254.488 6.82465C254.488 7.00905 254.302 6.8729 253.889 6.38568ZM251.922 4.42703C251.635 4.06155 251.644 4.05341 252.01 4.34003C252.393 4.64106 252.516 4.83028 252.325 4.83028C252.278 4.83028 252.096 4.64881 251.922 4.42703ZM243.377 0.29471C243.544 0.228166 243.743 0.236332 243.819 0.312918C243.896 0.389504 243.76 0.443956 243.517 0.433946C243.248 0.422924 243.193 0.368302 243.377 0.294729V0.29471ZM238.075 0.0642829C238.241 -0.00226042 238.44 0.005905 238.516 0.0824912C238.593 0.159077 238.457 0.213521 238.214 0.203519C237.946 0.192497 237.891 0.137875 238.075 0.0643016V0.0642829ZM241.749 0.0691854C241.908 0.00525477 242.167 0.00525477 242.326 0.0691854C242.484 0.133116 242.355 0.185411 242.038 0.185411C241.72 0.185411 241.59 0.133075 241.749 0.0691854Z" fill="#CBCBCB"/>
<path d="M180.538 78.4082C180.763 78.3493 181.074 78.3535 181.231 78.4165C181.387 78.4795 181.203 78.5273 180.822 78.5232C180.442 78.5176 180.314 78.4664 180.538 78.4082ZM183.877 78.4151C184.036 78.3514 184.295 78.3514 184.453 78.4151C184.612 78.4795 184.483 78.5315 184.165 78.5315C183.849 78.5315 183.719 78.4795 183.877 78.4151ZM172.27 74.8233L171.83 74.3051L172.349 74.7443C172.837 75.1565 172.973 75.3421 172.788 75.3421C172.745 75.3421 172.511 75.1087 172.27 74.8233ZM178.685 74.2012C175.881 73.4419 173.452 72.0398 171.485 70.0468C169.497 68.0332 168.461 66.4039 167.658 64.0303C167.018 62.1402 167.035 62.1068 168.719 61.8834C170.256 61.6796 172.905 60.7432 174.64 59.7899L176.111 58.982L177.445 59.543C181.954 61.44 186.946 61.2324 191.479 58.9592C193.938 57.7258 194.346 57.2569 192.419 57.8779C189.246 58.9008 184.383 58.6331 181.288 57.2652L179.957 56.6767L178.776 57.34C172.235 61.0128 164.118 60.6559 157.965 56.4251C155.206 54.5279 152.27 50.8144 151.107 47.7512C149.997 44.8281 149.754 43.258 149.884 39.8558C150.012 36.4727 150.429 34.7034 151.706 32.1364C152.445 30.6505 153.953 28.3306 154.173 28.3403C154.247 28.3436 154.663 28.8699 155.097 29.5099C158.415 34.3964 165.746 37.4846 172.013 36.6353C175.329 36.1859 179.864 34.2798 181.244 32.7556C181.64 32.319 181.582 32.3244 180.295 32.8439C172.925 35.819 163.811 33.3205 159.025 27.0129C157.65 25.2012 156.225 22.359 155.701 20.3846C155.147 18.2921 155.017 14.7299 155.415 12.541C156.017 9.23024 157.648 5.84194 159.724 3.59177C160.228 3.04452 160.592 2.54671 160.53 2.48554C160.304 2.25915 164.543 0.70177 166.422 0.32146C173.419 -1.09553 181.293 2.27753 185.186 8.3594C185.647 9.07999 186.056 9.66957 186.096 9.66957C186.135 9.66957 186.988 9.45039 187.991 9.18244C192.659 7.93565 198.742 8.8412 202.852 11.3949C204.89 12.6611 204.875 12.546 203.232 14.2579C200.714 16.8824 199.137 19.6712 198.204 23.1497C197.51 25.743 197.51 30.0092 198.206 32.5973C198.752 34.629 199.723 36.8448 200.81 38.5396C201.199 39.1465 201.478 39.6713 201.43 39.706C201.382 39.7408 200.799 40.1595 200.135 40.6367C198.405 41.8789 196.768 43.811 195.691 45.8799C192.495 52.019 193.506 59.0565 198.327 64.2355L199.035 64.9962L198.079 64.8434L197.122 64.6906L196.358 66.2258C194.57 69.8168 191.089 72.734 187.072 74.0072C184.92 74.6896 180.836 74.7845 178.685 74.2012ZM193.157 74.3335C193.157 74.2857 193.339 74.1042 193.561 73.9303C193.926 73.6435 193.935 73.6518 193.648 74.0169C193.347 74.4007 193.157 74.5226 193.157 74.3335ZM198.418 68.7326C198.583 68.666 198.783 68.6742 198.859 68.7507C198.936 68.8273 198.8 68.8818 198.556 68.8717C198.288 68.8607 198.234 68.8062 198.418 68.7326ZM201.876 68.7326C202.042 68.666 202.241 68.6742 202.318 68.7507C202.394 68.8273 202.258 68.8818 202.015 68.8717C201.747 68.8607 201.692 68.8062 201.876 68.7326ZM166.892 65.0687C166.903 64.8003 166.957 64.7457 167.031 64.9294C167.097 65.0958 167.089 65.2945 167.012 65.3711C166.936 65.4477 166.881 65.3116 166.892 65.0687ZM162.896 62.0549C163.054 61.9909 163.314 61.9909 163.472 62.0549C163.631 62.1188 163.501 62.1711 163.184 62.1711C162.867 62.1711 162.738 62.1188 162.896 62.0549ZM151.396 56.5044C151.11 56.1389 151.117 56.1308 151.483 56.4174C151.705 56.5913 151.886 56.7727 151.886 56.8206C151.886 57.0103 151.697 56.8882 151.396 56.5044ZM150.013 54.8913C149.726 54.5259 149.734 54.5177 150.1 54.8043C150.322 54.9783 150.504 55.1598 150.504 55.2076C150.504 55.3972 150.314 55.2752 150.013 54.8913ZM145.91 44.7909C145.921 44.5224 145.976 44.4679 146.049 44.6516C146.116 44.818 146.108 45.0167 146.031 45.0933C145.955 45.1699 145.9 45.0338 145.91 44.7909ZM145.928 41.008C145.928 40.6911 145.98 40.5615 146.044 40.7199C146.109 40.8784 146.109 41.1376 146.044 41.296C145.98 41.4544 145.928 41.3248 145.928 41.008ZM150.042 30.7821C150.042 30.7343 150.224 30.5528 150.446 30.3788C150.811 30.0922 150.819 30.1003 150.533 30.4658C150.231 30.8497 150.042 30.9717 150.042 30.7821ZM151.248 18.4259C151.248 17.9824 151.296 17.8009 151.354 18.0227C151.412 18.2444 151.412 18.6073 151.354 18.8292C151.296 19.0509 151.248 18.8695 151.248 18.4259Z" fill="#E8A0C8"/>
<path d="M228.611 78.386C228.8 78.2585 228.407 78.0978 227.497 77.9281C225.71 77.5963 222.674 76.1208 221.135 74.8357C219.549 73.5133 218.036 71.6297 217.142 69.8646L216.41 68.4195L214.871 68.5582C214.025 68.6346 213.202 68.7371 213.044 68.7861C212.885 68.8351 212.756 68.7678 212.756 68.6365C212.756 68.5052 212.565 68.4581 212.332 68.532C211.601 68.7641 208.474 68.0282 206.719 67.2104C202.591 65.2881 199.732 62.0639 198.297 57.7138C197.444 55.1283 197.398 51.1618 198.191 48.6119C198.908 46.3096 200.049 44.3053 201.599 42.633L202.872 41.2579L204.529 42.6045C205.439 43.3451 206.91 44.3562 207.797 44.8514C209.404 45.7494 209.409 45.755 209.581 46.9496C209.815 48.5765 210.764 51.2173 211.665 52.7569C212.882 54.8338 216.02 57.7979 218.173 58.9046C220.65 60.1773 223.323 60.8246 226.103 60.8246C227.31 60.8246 228.197 60.7374 228.076 60.6307C227.956 60.5239 227.165 60.2553 226.318 60.0335C223.148 59.2034 219.663 56.6089 217.622 53.5582C216.325 51.6202 215.631 49.9346 215.111 47.4562L214.748 45.7244L212.903 44.6911C209.445 42.7545 206.254 39.2015 204.709 35.566C203.488 32.6921 203.209 31.2643 203.209 27.8732C203.209 24.4884 203.488 23.0532 204.699 20.2029C206.368 16.2774 209.665 12.7193 213.373 10.8433C215.252 9.89264 216.85 9.29335 218.031 9.09599C218.737 8.97808 218.945 8.86669 218.723 8.72579C218.548 8.61488 218.475 8.52261 218.562 8.52067C218.85 8.51416 222.079 9.22096 222.946 9.48018L223.798 9.73504L223.375 10.5663C221.89 13.4843 221.306 18.7246 222.079 22.1966C223.822 30.0255 229.89 35.5944 237.829 36.6503C239.835 36.9169 241.525 36.8302 243.997 36.3338L245.38 36.0559L242.844 35.9026C239.787 35.7176 238.138 35.3041 235.696 34.1095C230.093 31.3696 226.489 26.5032 225.434 20.2528C224.692 15.8656 226.042 10.4006 228.791 6.65808C230.117 4.85339 232.872 2.44318 234.7 1.48886C235.628 1.00425 236.44 0.546805 236.504 0.472325C236.895 0.0122947 240.648 -0.0804321 242.915 0.313896C249.057 1.38206 253.941 5.00751 256.547 10.4319C257.708 12.8483 258.149 14.5472 258.324 17.2735C258.533 20.5144 257.888 23.8367 256.525 26.5503L256.09 27.4164L256.96 28.1621C261.343 31.9167 263.722 37.0267 263.747 42.7359C263.764 46.6372 262.995 49.56 261.137 52.6609C259.154 55.9703 256.52 58.3885 252.989 60.1419C250.559 61.3484 247.997 61.976 245.239 62.0403L243.022 62.092L242.89 63.9354C242.409 70.6592 237.578 76.4006 231.085 77.9634C228.836 78.5045 228.295 78.5966 228.611 78.386ZM207.87 68.7322C208.037 68.6657 208.235 68.6739 208.312 68.7505C208.389 68.8271 208.253 68.8815 208.01 68.8715C207.741 68.8605 207.686 68.8059 207.87 68.7323V68.7322ZM198.2 64.1083C197.914 63.7428 197.922 63.7346 198.288 64.0213C198.51 64.1952 198.691 64.3766 198.691 64.4245C198.691 64.6142 198.501 64.4921 198.2 64.1083ZM197.575 27.8732C197.575 27.5564 197.627 27.4268 197.691 27.5852C197.755 27.7436 197.755 28.0029 197.691 28.1612C197.627 28.3197 197.575 28.1901 197.575 27.8732ZM202.38 15.1126C202.38 15.0648 202.562 14.8833 202.784 14.7094C203.149 14.4227 203.157 14.4309 202.87 14.7963C202.569 15.1802 202.38 15.3022 202.38 15.1126Z" fill="#77D7E6"/>
<path d="M180.138 78.3244C174.919 77.5139 170.591 74.2587 168.358 69.4656C167.542 67.7148 166.874 64.9175 166.874 63.2539V62.2073L165.548 62.2023C156.384 62.1708 148.681 56.132 146.447 47.229C145.842 44.8149 145.891 40.6484 146.556 38.127C147.508 34.5145 150.079 30.3469 152.659 28.2344L153.717 27.3683L153.17 26.2898C151.914 23.8133 151.541 22.0105 151.541 18.4253C151.541 15.5649 151.618 14.8354 152.081 13.3558C153.429 9.04784 155.889 5.61287 159.306 3.26662C160.769 2.2618 160.883 2.33465 159.756 3.55592C157.648 5.84212 156.021 9.20904 155.415 12.5403C155.017 14.7293 155.147 18.2915 155.701 20.3839C156.225 22.3584 157.65 25.2005 159.025 27.0123C163.811 33.3199 172.925 35.8185 180.295 32.8433C181.582 32.3238 181.64 32.3183 181.244 32.7551C180.56 33.5106 177.935 34.9664 175.968 35.6815C172.128 37.0766 168.032 37.1243 163.925 35.822C160.588 34.764 156.85 32.0909 155.097 29.5093C154.663 28.8693 154.247 28.343 154.173 28.3397C153.953 28.33 152.445 30.6499 151.706 32.1359C150.429 34.7028 150.012 36.4721 149.884 39.8553C149.754 43.2574 149.998 44.8275 151.107 47.7506C152.27 50.8138 155.206 54.5273 157.965 56.4245C164.118 60.6553 172.235 61.0122 178.776 57.3395L179.957 56.6762L181.288 57.2646C184.383 58.6325 189.246 58.9001 192.419 57.8773C194.346 57.2563 193.938 57.7252 191.479 58.9587C186.946 61.2318 181.955 61.4394 177.445 59.5424L176.111 58.9813L174.64 59.7893C172.905 60.7425 170.256 61.6791 168.719 61.8828C167.035 62.1062 167.018 62.1396 167.658 64.0297C168.46 66.3987 169.495 68.0287 171.485 70.0545C174.617 73.2445 178.797 74.8399 183.337 74.5787C184.617 74.5053 186.298 74.2462 187.072 74.0024C191.073 72.7451 194.568 69.8182 196.357 66.2281L197.119 64.6956L198.157 64.851C198.822 64.9508 199.578 65.3013 200.268 65.8297C200.859 66.2825 202.047 66.9917 202.909 67.4058C203.77 67.8198 204.386 68.2136 204.277 68.2808C203.681 68.6492 200.078 68.9446 198.67 68.7405L197.151 68.52L196.259 70.2602C195.076 72.5684 192.309 75.3615 190.045 76.5343C186.899 78.163 183.293 78.8148 180.138 78.3244Z" fill="#C65760"/>
<path d="M224.921 78.3299C223.3 78.057 221.598 77.4598 219.787 76.5288C217.632 75.4204 214.763 72.5719 213.675 70.4597C213.238 69.6118 212.93 68.8744 212.991 68.8208C213.051 68.7671 213.847 68.6569 214.758 68.5758L216.415 68.4284L217.144 69.8688C218.036 71.6297 219.55 73.5147 221.135 74.8357C222.674 76.1208 225.711 77.5963 227.497 77.9281C228.372 78.0909 228.793 78.2599 228.611 78.3749C228.254 78.6015 226.401 78.5786 224.921 78.3299ZM207.913 68.7362C203.446 68.033 201.431 67.0503 198.569 64.18C195.222 60.8225 193.965 57.751 193.988 52.99C194 50.7612 194.1 50.0424 194.618 48.4666C195.328 46.3119 196.954 43.697 198.594 42.074C199.539 41.1384 200.082 40.7188 201.654 39.7074C201.699 39.6788 201.474 39.3116 201.155 38.8914C200.229 37.6715 198.985 35.0136 198.414 33.0384C197.65 30.3923 197.653 25.3462 198.419 22.6885C200.318 16.1084 205.703 10.8491 212.221 9.2089C214.428 8.6534 218.049 8.36016 218.637 8.68928C218.99 8.88623 218.893 8.95204 218.04 9.0946C216.85 9.29328 215.255 9.8907 213.373 10.8433C209.665 12.7194 206.368 16.2774 204.699 20.2029C203.488 23.0532 203.208 24.4884 203.208 27.8732C203.208 31.2643 203.487 32.6922 204.709 35.566C206.254 39.2015 209.445 42.7546 212.902 44.6911L214.747 45.7244L215.111 47.4562C215.631 49.9346 216.324 51.6202 217.622 53.5582C219.663 56.6089 223.147 59.2034 226.318 60.0335C227.164 60.2553 227.955 60.5239 228.076 60.6307C228.197 60.7374 227.31 60.8246 226.103 60.8246C223.323 60.8246 220.65 60.1773 218.174 58.9046C216.02 57.7979 212.882 54.8338 211.665 52.7569C210.763 51.2173 209.815 48.5765 209.581 46.9496C209.409 45.755 209.404 45.7494 207.796 44.8514C206.91 44.3562 205.439 43.3451 204.528 42.6045L202.873 41.2579L201.599 42.633C200.049 44.3053 198.907 46.3096 198.191 48.6119C197.398 51.1618 197.444 55.1283 198.297 57.7138C198.953 59.7041 199.991 61.5808 201.352 63.2412C203.228 65.5287 206.999 67.7416 209.958 68.291C211.39 68.5568 211.438 68.5849 210.709 68.7323C209.909 68.8941 208.925 68.8953 207.913 68.7362ZM237.317 36.6183C230.846 35.6059 225.337 31.1937 222.945 25.1081C221.35 21.0478 221.329 15.8448 222.892 11.6954C223.528 10.006 225.367 7.19373 226.882 5.59265C229.009 3.34501 233.146 0.997215 235.696 0.590412C236.541 0.455847 236.466 0.525011 234.82 1.40232C232.881 2.43615 230.132 4.83274 228.791 6.65807C226.042 10.4006 224.692 15.8656 225.434 20.2528C226.489 26.5032 230.093 31.3696 235.696 34.1095C238.167 35.318 239.816 35.7283 242.844 35.8882L245.381 36.022L244.112 36.3196C242.369 36.7287 238.976 36.8779 237.317 36.6183Z" fill="#3693A3"/>
<g filter="url(#filter0_i_45_1698)">
<path d="M10.1137 57.3864C9.62777 57.3864 9.30382 57.2894 9.14187 57.0954C8.97993 56.9338 8.88275 56.7398 8.85033 56.5135C8.81792 56.2872 8.78557 56.1256 8.75315 56.0286C8.62356 55.4467 8.55879 54.7355 8.55879 53.895C8.55879 53.1191 8.57497 52.4564 8.60738 51.9068C8.60738 50.2257 8.6398 48.2699 8.70456 46.0393C8.76933 43.7764 8.85033 42.16 8.94751 41.1902L9.19046 37.7473C9.57918 32.3808 9.77354 29.3582 9.77354 28.6793C9.77354 26.1254 9.82213 24.2181 9.91931 22.9573C9.98408 22.0845 10.4376 21.648 11.2798 21.648C11.539 21.648 11.7819 21.6642 12.0087 21.6965C12.2355 21.7289 12.4136 21.745 12.5432 21.745L16.6733 21.6965C17.386 21.6965 17.9043 21.7774 18.2282 21.939C18.5845 22.0683 18.8599 22.3108 19.0542 22.6664C19.3782 23.3453 19.7831 24.2181 20.269 25.2849L22.0668 29.1642L24.3506 34.1589C24.7717 35.0641 25.3224 36.2602 26.0026 37.7473C26.6829 39.2344 27.1688 40.2688 27.4603 40.8507C28.011 41.9822 28.3674 42.6773 28.5293 42.9359L31.3961 48.5609L31.2989 45.7484L31.1046 40.9962V39.5414C31.1046 37.7634 31.137 35.9692 31.2018 34.1589C31.2018 32.8011 31.1856 31.7019 31.1532 30.8614L31.1046 27.1761L31.2989 22.5209C31.2989 22.036 31.5419 21.7935 32.0278 21.7935C32.1897 21.7935 32.5137 21.842 32.9996 21.939C33.2911 22.0036 33.5988 22.036 33.9228 22.036C34.2468 22.036 34.5059 22.036 34.7002 22.036C34.9594 22.036 35.1214 22.0683 35.1861 22.133C35.2833 22.1976 35.3319 22.3108 35.3319 22.4724C35.3319 22.6017 35.3157 22.7472 35.2833 22.9088C35.2509 23.0704 35.2347 23.2483 35.2347 23.4422L35.1861 27.6125L35.089 37.4078L35.0404 38.8141C35.0404 39.9132 35.0565 40.9153 35.089 41.8206C35.1214 42.7257 35.1537 43.4693 35.1861 44.0512C35.2833 45.4413 35.3319 46.6051 35.3319 47.5426C35.3319 47.4132 35.3805 49.3367 35.4777 53.3131L35.5749 56.0286V56.1256C35.5749 56.7721 35.2671 57.0631 34.6516 56.9984C34.5545 56.9661 34.3601 56.9499 34.0686 56.9499L32.6595 56.9984H32.3679C32.1411 56.9984 31.963 56.9499 31.8334 56.8529C31.7362 56.756 31.5581 56.4812 31.2989 56.0286C31.2018 55.8023 31.0722 55.479 30.9102 55.0588C30.7483 54.6385 30.5539 54.1698 30.3271 53.6525C28.9342 50.1611 27.93 47.785 27.3146 46.5242C26.6019 45.1665 24.804 41.271 21.9211 34.8378C21.2732 33.5123 20.5444 32.1061 19.7345 30.619L18.3254 28.0974L18.4712 32.7041L18.5198 35.5651C18.5845 37.6988 18.6169 39.105 18.6169 39.7839C18.6169 42.4348 18.6655 45.1018 18.7627 47.785L18.8113 51.5674C18.8113 52.2462 18.8437 53.2322 18.9085 54.5253L19.0057 56.2226V56.3195C19.0057 56.6428 18.9246 56.8529 18.7627 56.9499C18.6008 57.0469 18.374 57.0954 18.0824 57.0954L17.0135 57.1439C16.3332 57.2409 15.6044 57.2894 14.8269 57.2894C13.9199 57.2894 13.1748 57.3055 12.5918 57.3379L10.1137 57.3864Z" fill="#3693A3"/>
<path d="M60.3452 57.2409C58.5635 57.1763 57.3488 57.16 56.7009 57.1924C56.3122 57.2247 56.0693 57.1439 55.9721 56.9499C55.9073 56.756 55.8749 56.5297 55.8749 56.2711C55.9073 55.9801 55.9235 55.77 55.9235 55.6407L55.9721 54.9618C54.482 55.7053 53.251 56.2549 52.2792 56.6105C51.3074 56.9338 50.0603 57.0954 48.5378 57.0954C47.0477 57.0954 45.8006 56.8691 44.7964 56.4165C43.8246 55.9316 42.9175 55.1073 42.0753 53.9435C41.4922 53.2322 41.0711 52.1654 40.812 50.743C40.5852 49.3206 40.4718 48.076 40.4718 47.0092V30.425C40.4718 30.0371 40.5204 29.7785 40.6176 29.6492C40.7472 29.4875 40.9416 29.3744 41.2007 29.3097C41.2979 29.2774 41.4761 29.2612 41.7352 29.2612L43.1929 29.3097C43.7435 29.3097 44.0189 29.5845 44.0189 30.1341L43.8731 37.0684C43.776 39.008 43.7274 40.5921 43.7274 41.8206L43.6788 45.215C43.6788 48.1891 43.8893 50.1288 44.3105 51.034C44.7316 51.8745 45.1041 52.5049 45.428 52.9251C45.7843 53.3131 46.2379 53.604 46.7886 53.798C47.3716 53.9596 48.1977 54.0404 49.2666 54.0404C50.4004 54.0404 51.5666 53.8303 52.7651 53.4101C53.9961 52.9575 55.0975 52.4402 56.0693 51.8583C56.1664 49.5307 56.215 46.6536 56.215 43.2268C56.215 40.188 56.1503 36.8583 56.0207 33.2375L55.9235 29.6977C55.9235 29.3097 56.1989 29.1158 56.7495 29.1158H57.7699C58.029 29.1158 58.353 29.1319 58.7417 29.1642C59.1304 29.1642 59.5677 29.1481 60.0536 29.1158H60.2966C60.6529 29.1158 60.8311 29.2612 60.8311 29.5522V31.2979L60.8797 33.6255C61.0416 38.7656 61.1064 41.7236 61.074 42.4994V55.4467C61.1064 55.6407 61.1226 55.8993 61.1226 56.2226C61.1226 56.6105 61.0579 56.8691 60.9283 56.9984C60.8311 57.16 60.6367 57.2409 60.3452 57.2409Z" fill="#3693A3"/>
<path d="M72.7254 57.3379C70.2959 57.3379 68.3847 56.7075 66.9917 55.4467C65.5989 54.1859 64.9024 52.0199 64.9024 48.9488C64.9024 45.9424 65.8256 43.8411 67.672 42.6449C69.5511 41.4488 71.6891 40.7214 74.086 40.4628L76.3697 40.1718C77.8919 39.9455 79.0421 39.8324 79.8196 39.8324V39.202L79.5766 36.6804C79.4149 35.1287 79.0907 34.1104 78.6048 33.6255C78.1189 33.1082 77.4546 32.8496 76.6126 32.8496C75.9969 32.8496 74.896 33.2214 73.3085 33.9649C71.721 34.6762 70.1502 35.5651 68.5952 36.632C68.5629 36.6643 68.498 36.6804 68.4008 36.6804C68.2713 36.6804 68.1255 36.5673 67.9635 36.341C67.7044 35.9531 67.4939 35.4197 67.3319 34.7408C67.2671 34.4498 67.1213 34.1104 66.8946 33.7225C66.7002 33.3345 66.603 33.0436 66.603 32.8496C66.603 32.6556 66.7974 32.4293 67.1861 32.1707C69.0002 30.9746 70.4903 30.0856 71.6565 29.5037C72.8552 28.9218 73.8916 28.5339 74.7662 28.3399C75.6408 28.1459 76.6286 28.0489 77.7302 28.0489C81.1961 28.0489 83.7394 29.2451 85.3589 31.6373C85.683 32.1222 85.9419 32.6556 86.1363 33.2375C86.3307 33.8194 86.4924 34.3852 86.6222 34.9348C86.7839 35.452 86.8811 35.7915 86.9137 35.9531C87.4323 38.0867 87.6426 40.4951 87.5454 43.1783C87.5454 45.5706 87.5128 47.3325 87.4482 48.4639C87.4482 49.1428 87.5128 50.1611 87.6426 51.5189C87.7724 53.006 87.821 54.1536 87.7884 54.9618L87.837 55.5437C87.837 56.2872 87.5454 56.659 86.9623 56.659C86.5736 56.659 85.8288 56.6913 84.7272 56.756C83.6256 56.8206 82.8322 56.853 82.3463 56.853C82.0221 56.853 81.7306 56.8691 81.4717 56.9015C81.2127 56.9338 80.9698 56.9499 80.7428 56.9499C80.613 56.9499 80.4839 56.9015 80.3541 56.8045C80.2569 56.6751 80.2083 56.5297 80.2083 56.368L80.1111 55.7861C80.0785 55.7538 80.0466 55.6892 80.0139 55.5922C80.0139 55.4952 79.9813 55.4144 79.9168 55.3497C78.103 56.6751 75.7054 57.3379 72.7254 57.3379ZM72.2395 52.7312C73.7944 52.7312 75.2362 52.5696 76.5641 52.2463C77.892 51.923 78.9776 51.4704 79.8196 50.8885L79.7224 47.0092C78.6208 46.8152 77.7788 46.7021 77.1957 46.6697C76.6453 46.6051 75.7866 46.5727 74.6204 46.5727C73.2273 46.5727 71.8994 46.8313 70.6361 47.3486C69.4051 47.8659 68.741 48.965 68.6438 50.646C68.579 51.1956 68.822 51.6805 69.3726 52.1008C69.9232 52.5211 70.879 52.7312 72.2395 52.7312Z" fill="#3693A3"/>
<path d="M101.766 64.5631C99.0446 64.5631 96.5019 63.7388 94.137 62.0901C94.0724 62.0254 94.0398 61.9446 94.0398 61.8476L94.137 61.3142C94.2668 60.9909 94.3799 60.6999 94.4771 60.4413C94.6069 60.215 94.7201 60.0049 94.8172 59.8109C94.8825 59.4876 95.0442 59.3584 95.3031 59.423C95.7245 59.5846 96.0973 59.7463 96.4207 59.9079C96.7449 60.0696 97.0364 60.1989 97.2953 60.2959C98.3643 60.8131 99.2875 61.2011 100.065 61.4597C100.875 61.7506 101.685 61.8961 102.494 61.8961C104.341 61.8961 105.799 61.2333 106.868 59.9079C107.937 58.5825 108.488 56.8691 108.52 54.7678V53.992C106.738 54.6708 104.632 55.0103 102.203 55.0103C99.9032 55.0103 98.0082 54.4122 96.5179 53.2161C95.0283 52.0199 93.9426 50.4682 93.2624 48.5609C92.6147 46.6212 92.2906 44.5361 92.2906 42.3055C92.2906 40.6891 92.5176 38.8302 92.9708 36.7289C93.4248 34.5953 94.3799 32.6395 95.8376 30.8615C97.2953 29.0511 99.4173 28.1459 102.203 28.1459C104.762 28.1459 106.916 28.7117 108.665 29.8431V29.2127C108.665 29.0188 108.682 28.8733 108.714 28.7763C108.779 28.6793 108.908 28.6147 109.103 28.5823C109.491 28.5177 109.8 28.4854 110.026 28.4854C110.415 28.4854 110.723 28.5015 110.949 28.5339C111.176 28.5662 111.322 28.5823 111.386 28.5823H111.581C111.743 28.5823 111.872 28.6308 111.97 28.7278C112.067 28.7925 112.115 28.9379 112.115 29.1642C112.115 29.5198 112.051 30.7968 111.921 32.9951L111.678 37.8927C111.646 38.4423 111.646 39.202 111.678 40.1718C111.711 41.1093 111.727 41.9984 111.727 42.8389L111.775 44.3906V51.5674C111.775 55.867 110.998 59.0997 109.443 61.2657C107.888 63.464 105.329 64.5631 101.766 64.5631ZM101.911 53.1676C103.175 53.1676 104.406 52.7635 105.604 51.9553C106.803 51.1471 107.775 49.9833 108.52 48.4639V48.2699C108.52 47.1385 108.536 46.3141 108.568 45.7969C108.601 45.5383 108.617 44.6331 108.617 43.0813L108.52 38.9111L108.617 34.0134C108.066 33.1082 107.224 32.4455 106.09 32.0253C104.989 31.5727 103.79 31.3464 102.494 31.3464C99.8061 31.3464 97.7326 32.3162 96.2749 34.2559C94.8172 36.1955 94.0884 38.8626 94.0884 42.257C94.0884 44.0997 94.4126 45.8615 95.0602 47.5426C95.7405 49.2236 96.6803 50.5814 97.8784 51.6159C99.0772 52.6503 100.422 53.1676 101.911 53.1676Z" fill="#3693A3"/>
<path d="M128.382 57.8713C123.523 57.8713 120.283 56.2387 118.664 52.9736C117.044 49.6762 116.234 46.1525 116.234 42.4025C116.234 38.7817 116.785 35.8884 117.886 33.7225C118.988 31.5242 120.316 29.9886 121.871 29.1158C123.458 28.2429 125.045 27.8065 126.633 27.8065C129.613 27.8065 131.848 28.6632 133.338 30.3765C134.86 32.0899 135.832 34.0943 136.253 36.3895C136.707 38.6525 136.934 41.1093 136.934 43.7602C136.934 43.9865 136.772 44.132 136.448 44.1966C135.379 44.1966 132.917 44.3745 129.062 44.7301C128.446 44.7947 127.702 44.8755 126.827 44.9725C125.952 45.0371 124.981 45.1018 123.912 45.1665C124.203 48.3023 125.904 49.8702 129.014 49.8702C130.05 49.8702 130.844 49.7732 131.394 49.5792C131.978 49.3853 132.901 48.9812 134.164 48.3669C134.391 48.3669 134.585 48.4963 134.747 48.7549C134.942 49.0135 135.2 49.5469 135.525 50.3551C135.622 50.5167 135.735 50.8239 135.865 51.2764C136.026 51.729 136.172 52.0684 136.302 52.2947C136.918 53.8465 137.209 54.6547 137.177 54.7193C137.112 54.8487 136.934 55.0264 136.642 55.2527C135.962 55.9316 134.86 56.5297 133.338 57.0469C131.848 57.5965 130.196 57.8713 128.382 57.8713ZM129.548 41.8691C129.289 38.1837 128.398 36.341 126.876 36.341C125.968 36.341 125.272 36.8744 124.786 37.9412C124.3 38.9757 124.009 40.4467 123.912 42.354L129.548 41.8691Z" fill="#3693A3"/>
<path d="M17.9367 115.528C16.2846 115.528 14.7945 115.156 13.4664 114.413C12.1706 113.669 11.0693 112.57 10.1623 111.115C8.47778 108.4 7.63558 104.827 7.63558 100.398C7.63558 98.3618 7.87853 96.6161 8.36443 95.1613C8.85033 93.674 9.6116 92.2678 10.6482 90.9426C11.62 89.7144 12.6728 88.793 13.8065 88.1786C15.0374 87.5322 16.2684 87.2087 17.4994 87.2087C19.0867 87.2087 20.35 87.3383 21.2894 87.5967C22.2288 87.855 22.8281 88.0975 23.0872 88.324C23.3788 88.5506 23.7675 88.9059 24.2534 89.3908L24.3506 81.3897C24.3506 80.5494 24.4316 79.9509 24.5935 79.5955C24.7555 79.2076 25.0308 79.0136 25.4195 79.0136L27.5575 79.0621C28.1082 79.0621 28.5293 79.0296 28.8209 78.9651C29.242 78.9007 29.5335 79.0947 29.6955 79.547C29.8574 79.9675 29.9384 80.4358 29.9384 80.9533L29.8412 114.122C29.8412 114.542 29.7441 114.833 29.5497 114.994C29.3878 115.156 29.1286 115.237 28.7723 115.237C27.6385 115.172 26.4724 115.14 25.2738 115.14C24.7555 115.14 24.383 115.075 24.1562 114.946C23.9618 114.816 23.8647 114.51 23.8647 114.025V113.055C22.8929 113.798 21.9211 114.397 20.9493 114.849C19.9775 115.301 18.9732 115.528 17.9367 115.528ZM17.7909 112.182C18.9895 112.182 20.0585 111.955 20.9978 111.503C21.9372 111.051 22.6499 110.452 23.1358 109.709C23.6541 108.966 23.9133 108.206 23.9133 107.43C23.9133 106.654 23.978 105.523 24.1076 104.035L24.2048 101.902C24.2048 101.223 24.1724 100.334 24.1076 99.2346C24.0428 97.9413 24.0104 96.6646 24.0104 95.4038C24.0104 94.5635 23.7027 93.8195 23.0872 93.1732C22.4717 92.5269 21.7105 92.0253 20.8035 91.67C19.8965 91.3146 19.0542 91.1365 18.2768 91.1365C17.2726 91.1365 16.317 91.4116 15.41 91.9609C14.503 92.5428 13.7579 93.2861 13.1748 94.1915C12.4946 95.2583 11.9925 96.2926 11.6686 97.295C11.3446 98.2974 11.1827 99.4612 11.1827 100.786C11.1827 104.084 11.701 106.735 12.7375 108.739C13.8713 111.034 15.5558 112.182 17.7909 112.182Z" fill="#3693A3"/>
<path d="M47.003 116.061C42.144 116.061 38.9047 114.428 37.285 111.164C35.6653 107.866 34.8555 104.342 34.8555 100.592C34.8555 96.9715 35.4062 94.0786 36.5076 91.9124C37.6089 89.7144 38.9371 88.1786 40.492 87.3057C42.0792 86.4329 43.6665 85.9964 45.2538 85.9964C48.234 85.9964 50.4691 86.8534 51.9592 88.5665C53.4817 90.2796 54.4535 92.2844 54.8746 94.5795C55.3281 96.8426 55.5549 99.2991 55.5549 101.95C55.5549 102.177 55.3929 102.322 55.069 102.387C54 102.387 51.5381 102.565 47.6833 102.92C47.0678 102.984 46.3228 103.065 45.4482 103.162C44.5735 103.227 43.6017 103.292 42.5328 103.356C42.8243 106.492 44.5249 108.06 47.6347 108.06C48.6713 108.06 49.4649 107.963 50.0156 107.769C50.5987 107.575 51.5219 107.171 52.7853 106.557C53.012 106.557 53.2063 106.686 53.3683 106.945C53.5627 107.203 53.8218 107.737 54.1458 108.545C54.243 108.706 54.3563 109.014 54.4859 109.466C54.6478 109.919 54.7936 110.258 54.9232 110.485C55.5386 112.036 55.8302 112.845 55.7978 112.909C55.733 113.039 55.5549 113.216 55.2633 113.443C54.5831 114.122 53.4817 114.719 51.9592 115.237C50.4691 115.786 48.817 116.061 47.003 116.061ZM48.1692 100.059C47.91 96.3737 47.0192 94.531 45.4967 94.531C44.5897 94.531 43.8933 95.0644 43.4074 96.1312C42.9215 97.1655 42.6299 98.6368 42.5328 100.544L48.1692 100.059Z" fill="#3693A3"/>
<path d="M81.9485 115.528C80.2965 115.528 78.8061 115.156 77.4782 114.413C76.1823 113.669 75.0807 112.57 74.1741 111.115C72.4894 108.4 71.6474 104.827 71.6474 100.398C71.6474 98.3618 71.8904 96.6161 72.3763 95.1613C72.8622 93.674 73.623 92.2678 74.66 90.9426C75.6318 89.7144 76.6841 88.793 77.8184 88.1786C79.0491 87.5322 80.2798 87.2087 81.5112 87.2087C83.098 87.2087 84.3614 87.3383 85.3012 87.5967C86.2404 87.855 86.8395 88.0975 87.0991 88.324C87.3906 88.5506 87.7793 88.9059 88.2652 89.3908L88.3624 81.3897C88.3624 80.5494 88.4429 79.9509 88.6054 79.5955C88.7671 79.2076 89.0427 79.0136 89.4314 79.0136L91.5694 79.0621C92.1198 79.0621 92.5412 79.0296 92.8327 78.9651C93.2534 78.9007 93.5449 79.0947 93.7073 79.547C93.8691 79.9675 93.9503 80.4358 93.9503 80.9533L93.8531 114.122C93.8531 114.542 93.7559 114.833 93.5616 114.994C93.3991 115.156 93.1402 115.237 92.7841 115.237C91.6499 115.172 90.4837 115.14 89.2856 115.14C88.7671 115.14 88.3943 115.075 88.1681 114.946C87.9737 114.816 87.8765 114.51 87.8765 114.025V113.055C86.9047 113.798 85.9329 114.397 84.9611 114.849C83.9893 115.301 82.9849 115.528 81.9485 115.528ZM81.8028 112.182C83.0008 112.182 84.0698 111.955 85.0097 111.503C85.9489 111.051 86.6618 110.452 87.1477 109.709C87.6655 108.966 87.9251 108.206 87.9251 107.43C87.9251 106.654 87.9897 105.523 88.1195 104.035L88.2166 101.902C88.2166 101.223 88.184 100.334 88.1195 99.2346C88.0542 97.9413 88.0223 96.6646 88.0223 95.4038C88.0223 94.5635 87.7141 93.8195 87.0991 93.1732C86.4834 92.5269 85.7219 92.0253 84.8153 91.67C83.9081 91.3146 83.0661 91.1365 82.2887 91.1365C81.2842 91.1365 80.3284 91.4116 79.4218 91.9609C78.5146 92.5428 77.7698 93.2861 77.1867 94.1915C76.5064 95.2583 76.0039 96.2926 75.6804 97.295C75.3562 98.2974 75.1945 99.4612 75.1945 100.786C75.1945 104.084 75.7123 106.735 76.7494 108.739C77.8829 111.034 79.5676 112.182 81.8028 112.182Z" fill="#3693A3"/>
<path d="M110.286 116.061C106.01 116.061 103.159 114.428 101.734 111.164C100.309 107.866 99.5957 104.342 99.5957 100.592C99.5957 96.9715 100.147 94.0786 101.248 91.9124C102.349 89.7144 103.677 88.1786 105.232 87.3057C106.82 86.4329 108.407 85.9964 109.994 85.9964C112.975 85.9964 115.226 86.7882 116.748 88.3725C118.271 89.9243 119.243 91.7829 119.663 93.9491C120.085 96.0827 120.295 98.4914 120.295 101.174C120.295 103.341 119.923 105.587 119.178 107.915C118.465 110.21 117.348 112.149 115.825 113.734C114.335 115.285 112.489 116.061 110.286 116.061ZM109.945 106.654C111.014 106.654 111.792 106.153 112.278 105.151C112.796 104.148 113.055 102.936 113.055 101.514C113.055 99.6711 112.812 98.3777 112.326 97.6344C111.873 96.8586 111.177 96.4706 110.237 96.4706C108.229 96.4706 107.224 98.2808 107.224 101.902C107.224 103.259 107.403 104.391 107.759 105.296C108.116 106.202 108.845 106.654 109.945 106.654Z" fill="#3693A3"/>
<path d="M133.603 115.77C131.821 115.77 130.266 115.188 128.938 114.025C127.642 112.861 126.637 111.228 125.925 109.127C125.245 107.026 124.905 104.601 124.905 101.853C124.905 101.207 124.954 99.3801 125.051 96.3736C125.115 95.5333 125.148 94.9674 125.148 94.6764L125.099 93.7066C125.099 93.0921 125.083 92.2678 125.051 91.2335C125.018 90.1667 125.002 88.8249 125.002 87.2087C125.002 86.9822 125.164 86.8533 125.488 86.8208C126.297 86.7564 127.286 86.7079 128.452 86.6753C129.65 86.6427 130.736 86.6268 131.708 86.6268C131.966 86.6268 132.128 86.6753 132.193 86.7723C132.258 86.8367 132.291 86.9663 132.291 87.1602L132.242 87.9846L132.291 89.0029C132.291 89.8432 132.242 90.716 132.145 91.6214C132.048 92.4943 131.999 93.0436 131.999 93.2702C131.999 94.046 132.048 94.9999 132.145 96.1312C132.177 96.5835 132.209 97.101 132.242 97.6829C132.274 98.2648 132.291 98.8793 132.291 99.5256L132.242 103.114C132.242 105.118 132.485 106.557 132.971 107.43C133.457 108.27 134.38 108.69 135.74 108.69C136.161 108.69 136.664 108.594 137.247 108.4C137.862 108.173 138.396 107.899 138.85 107.575C138.882 106.12 138.899 104.569 138.899 102.92C138.899 102.144 138.915 101.433 138.947 100.786C138.979 100.14 139.012 99.5741 139.045 99.0892C139.142 97.7314 139.19 96.4547 139.19 95.2583C139.19 94.7734 139.125 93.8521 138.996 92.4943C138.866 90.9426 138.802 89.7788 138.802 89.0029C138.802 88.8734 138.785 88.5824 138.753 88.1301C138.753 87.6451 138.834 87.2898 138.996 87.0632C139.158 86.8048 139.417 86.6753 139.773 86.6753C139.903 86.6753 140.227 86.7079 140.745 86.7723C141.296 86.8367 141.846 86.8693 142.397 86.8693C143.012 86.8693 143.547 86.8533 144.001 86.8208C144.487 86.7882 144.859 86.7723 145.118 86.7723C145.604 86.7723 145.847 86.9663 145.847 87.3542C145.847 87.3867 145.831 87.4671 145.799 87.5966C145.799 87.6936 145.799 87.8717 145.799 88.1301L145.847 91.185C145.976 95.3227 146.042 98.3133 146.042 100.156L145.993 102.338L146.042 106.363C146.106 108.626 146.139 110.307 146.139 111.406C146.139 112.537 146.122 113.33 146.09 113.782L146.139 114.461C146.139 114.849 146.009 115.043 145.75 115.043C145.523 115.043 145.199 115.027 144.778 114.994C144.357 114.962 143.838 114.946 143.223 114.946L141.085 114.994C140.794 115.027 140.454 115.043 140.065 115.043C139.903 115.043 139.757 115.01 139.628 114.946C139.531 114.849 139.482 114.736 139.482 114.606L139.288 114.122C138.575 114.671 137.813 115.075 137.004 115.334C136.194 115.625 135.06 115.77 133.603 115.77Z" fill="#3693A3"/>
<path d="M161.583 115.722C159.996 115.722 158.376 115.253 156.724 114.316C155.104 113.346 153.711 111.73 152.545 109.466C151.411 107.203 150.844 104.245 150.844 100.592C150.844 94.903 151.913 91.0236 154.051 88.9544C156.222 86.8852 158.635 85.851 161.291 85.851C163.818 85.851 165.713 86.2548 166.976 87.0632C168.24 87.8717 169.098 88.615 169.552 89.2939C170.037 89.9402 170.346 90.3447 170.475 90.5061C170.766 90.8296 170.912 91.088 170.912 91.282C170.912 91.4434 170.848 91.5889 170.718 91.7184C170.589 91.848 170.459 91.945 170.329 92.0094C170.2 92.0738 170.086 92.1389 169.989 92.2034C169.763 92.3003 169.017 92.7368 167.754 93.5126C166.523 94.2559 165.827 94.6605 165.664 94.7249L165.276 94.8219C165.081 94.8219 164.904 94.7249 164.741 94.531C164.612 94.3044 164.515 94.143 164.45 94.046C164.158 93.5937 163.866 93.2376 163.575 92.9792C163.316 92.6883 162.943 92.5428 162.457 92.5428C161.454 92.5428 160.66 93.1088 160.076 94.24C159.493 95.3712 159.202 97.376 159.202 100.253C159.202 101.934 159.332 103.308 159.591 104.375C159.882 105.442 160.222 106.217 160.611 106.702C161 107.155 161.388 107.381 161.777 107.381C162.296 107.381 162.7 107.268 162.992 107.042C163.316 106.783 163.592 106.314 163.818 105.636C164.012 104.989 164.369 104.666 164.887 104.666C165.049 104.666 165.244 104.698 165.47 104.763C165.697 104.827 165.843 104.86 165.907 104.86C166.426 105.021 167.155 105.215 168.094 105.442C169.034 105.636 169.892 105.797 170.669 105.926C170.863 105.959 170.993 106.056 171.058 106.217C171.123 106.379 171.155 106.605 171.155 106.896C171.155 107.187 171.139 107.397 171.106 107.527C171.074 107.915 170.977 108.384 170.815 108.933C169.131 113.459 166.053 115.722 161.583 115.722Z" fill="#3693A3"/>
<path d="M185.987 116.061C181.128 116.061 177.89 114.428 176.27 111.164C174.65 107.866 173.84 104.342 173.84 100.592C173.84 96.9715 174.391 94.0786 175.492 91.9124C176.594 89.7144 177.922 88.1786 179.476 87.3057C181.064 86.4329 182.651 85.9964 184.238 85.9964C187.219 85.9964 189.454 86.8534 190.944 88.5665C192.467 90.2796 193.438 92.2844 193.859 94.5795C194.313 96.8426 194.539 99.2991 194.539 101.95C194.539 102.177 194.378 102.322 194.053 102.387C192.984 102.387 190.523 102.565 186.668 102.92C186.053 102.984 185.307 103.065 184.433 103.162C183.558 103.227 182.586 103.292 181.517 103.356C181.809 106.492 183.509 108.06 186.619 108.06C187.656 108.06 188.45 107.963 189 107.769C189.583 107.575 190.506 107.171 191.77 106.557C191.997 106.557 192.191 106.686 192.353 106.945C192.547 107.203 192.807 107.737 193.13 108.545C193.227 108.706 193.341 109.014 193.47 109.466C193.633 109.919 193.779 110.258 193.908 110.485C194.523 112.036 194.815 112.845 194.782 112.909C194.718 113.039 194.539 113.216 194.248 113.443C193.568 114.122 192.467 114.719 190.944 115.237C189.454 115.786 187.802 116.061 185.987 116.061ZM187.154 100.059C186.895 96.3737 186.004 94.531 184.481 94.531C183.575 94.531 182.878 95.0644 182.392 96.1312C181.906 97.1655 181.614 98.6368 181.517 100.544L187.154 100.059Z" fill="#3693A3"/>
<path d="M207.437 115.77C205.655 115.77 204.1 115.188 202.772 114.025C201.476 112.861 200.471 111.228 199.759 109.127C199.079 107.026 198.739 104.601 198.739 101.853C198.739 101.207 198.787 99.3801 198.885 96.3736C198.949 95.5333 198.982 94.9674 198.982 94.6764L198.933 93.7066C198.933 93.0921 198.917 92.2678 198.885 91.2335C198.852 90.1667 198.836 88.8249 198.836 87.2087C198.836 86.9822 198.998 86.8533 199.322 86.8208C200.131 86.7564 201.12 86.7079 202.286 86.6753C203.484 86.6427 204.57 86.6268 205.542 86.6268C205.8 86.6268 205.962 86.6753 206.027 86.7723C206.092 86.8367 206.125 86.9663 206.125 87.1602L206.076 87.9846L206.125 89.0029C206.125 89.8432 206.076 90.716 205.979 91.6214C205.882 92.4943 205.833 93.0436 205.833 93.2702C205.833 94.046 205.882 94.9999 205.979 96.1312C206.011 96.5835 206.043 97.101 206.076 97.6829C206.108 98.2648 206.125 98.8793 206.125 99.5256L206.076 103.114C206.076 105.118 206.319 106.557 206.805 107.43C207.291 108.27 208.214 108.69 209.574 108.69C209.995 108.69 210.498 108.594 211.081 108.4C211.696 108.173 212.23 107.899 212.684 107.575C212.716 106.12 212.733 104.569 212.733 102.92C212.733 102.144 212.749 101.433 212.781 100.786C212.813 100.14 212.846 99.5741 212.879 99.0892C212.976 97.7314 213.024 96.4547 213.024 95.2583C213.024 94.7734 212.959 93.8521 212.83 92.4943C212.7 90.9426 212.636 89.7788 212.636 89.0029C212.636 88.8734 212.619 88.5824 212.587 88.1301C212.587 87.6451 212.668 87.2898 212.83 87.0632C212.992 86.8048 213.251 86.6753 213.607 86.6753C213.737 86.6753 214.061 86.7079 214.579 86.7723C215.13 86.8367 215.68 86.8693 216.231 86.8693C216.846 86.8693 217.381 86.8533 217.835 86.8208C218.321 86.7882 218.693 86.7723 218.952 86.7723C219.438 86.7723 219.681 86.9663 219.681 87.3542C219.681 87.3867 219.665 87.4671 219.633 87.5966C219.633 87.6936 219.633 87.8717 219.633 88.1301L219.681 91.185C219.81 95.3227 219.876 98.3133 219.876 100.156L219.827 102.338L219.876 106.363C219.94 108.626 219.973 110.307 219.973 111.406C219.973 112.537 219.956 113.33 219.924 113.782L219.973 114.461C219.973 114.849 219.843 115.043 219.584 115.043C219.357 115.043 219.033 115.027 218.612 114.994C218.191 114.962 217.672 114.946 217.057 114.946L214.919 114.994C214.628 115.027 214.288 115.043 213.899 115.043C213.737 115.043 213.591 115.01 213.462 114.946C213.365 114.849 213.316 114.736 213.316 114.606L213.122 114.122C212.409 114.671 211.647 115.075 210.838 115.334C210.028 115.625 208.894 115.77 207.437 115.77Z" fill="#3693A3"/>
<path d="M232.647 115.14C232.615 115.14 232.356 115.107 231.87 115.043C231.416 114.978 230.801 114.946 230.023 114.946L226.282 114.994C225.796 114.994 225.553 114.8 225.553 114.413C225.553 114.283 225.553 113.847 225.553 113.103C225.586 112.36 225.602 111.083 225.602 109.272C225.602 107.43 225.65 105.651 225.747 103.938C225.877 102.225 225.942 101.271 225.942 101.077L226.233 92.3003L226.282 87.3057C226.282 86.9503 226.363 86.7564 226.525 86.7238C226.687 86.7238 227.043 86.7397 227.594 86.7723C228.145 86.8049 228.841 86.8208 229.683 86.8208C230.331 86.8208 230.963 86.8049 231.578 86.7723C232.226 86.7397 232.615 86.7238 232.744 86.7238C232.842 86.7238 232.923 86.7882 232.987 86.9178C233.084 87.0148 233.133 87.0958 233.133 87.1602L233.23 88.518C234.332 87.8066 235.611 87.2087 237.069 86.7238C238.559 86.2063 239.693 85.9479 240.47 85.9479C240.665 85.9479 240.794 85.9639 240.859 85.9964C240.924 86.029 240.989 86.1745 241.053 86.4329C241.15 86.6594 241.232 86.8533 241.296 87.0148C241.62 87.8232 241.831 88.793 241.928 89.9242C241.96 90.4417 242.042 91.0396 242.171 91.7184C242.236 92.0094 242.268 92.3648 242.268 92.7853C242.268 93.0436 242.252 93.1891 242.219 93.2217C241.96 93.6096 241.572 93.8846 241.053 94.046C240.535 94.1756 239.774 94.3044 238.769 94.434C237.506 94.5635 236.421 94.7575 235.514 95.0159L233.376 95.5008L233.425 97.4404C233.425 98.5073 233.441 99.0566 233.473 99.0892L233.522 103.211C233.587 105.345 233.619 108.254 233.619 111.939C233.619 113.362 233.554 114.316 233.425 114.8C233.425 115.027 233.166 115.14 232.647 115.14Z" fill="#3693A3"/>
<path d="M252.717 115.431C251.648 115.431 250.563 115.237 249.461 114.849C248.36 114.461 247.388 114.041 246.546 113.588C245.736 113.103 245.251 112.78 245.088 112.618C244.797 112.36 244.732 112.117 244.894 111.891C245.024 111.633 245.25 111.245 245.574 110.727C245.898 110.21 246.125 109.951 246.254 109.951H246.352C246.416 109.951 246.481 109.967 246.546 110C246.611 110.032 246.692 110.113 246.789 110.242C246.886 110.339 246.999 110.452 247.129 110.582C247.485 110.937 248.231 111.325 249.364 111.745C250.498 112.166 251.421 112.376 252.134 112.376C252.296 112.376 252.863 112.392 253.834 112.424C254.839 112.457 255.681 112.149 256.361 111.503C257.074 110.824 257.43 109.79 257.43 108.4C257.43 107.494 257.041 106.718 256.264 106.072C255.519 105.426 254.369 104.65 252.814 103.744L251.016 102.629C249.137 101.627 247.648 100.528 246.546 99.3316C245.477 98.1034 244.943 96.5191 244.943 94.5794C244.943 91.9934 245.833 89.9727 247.615 88.518C249.397 87.0632 251.648 86.3358 254.369 86.3358C256.734 86.3358 258.483 86.8048 259.617 87.7421C260.783 88.6475 261.399 89.1324 261.463 89.1969C261.723 89.3583 261.852 89.5522 261.852 89.7788C261.852 89.8757 261.803 89.9727 261.706 90.0697C261.641 90.1667 261.414 90.5061 261.026 91.088C260.67 91.6374 260.41 91.9124 260.248 91.9124C260.119 91.9124 259.941 91.8313 259.714 91.6699L259.422 91.4275C259.358 91.363 258.855 90.9751 257.916 90.2637C256.977 89.5522 255.843 89.1969 254.515 89.1969C252.571 89.1969 251.129 89.5363 250.19 90.2152C249.251 90.8941 248.781 91.8639 248.781 93.1247C248.781 94.1589 249.186 95.0484 249.996 95.7917C250.806 96.535 251.858 97.2139 253.154 97.8284L254.418 98.3618C255.778 98.8793 256.96 99.4445 257.965 100.059C259.001 100.673 259.908 101.595 260.686 102.823C261.496 104.019 261.9 105.554 261.9 107.43C261.9 110.533 260.977 112.651 259.131 113.782C257.317 114.882 255.179 115.431 252.717 115.431Z" fill="#3693A3"/>
</g>
</g>
<defs>
<filter id="filter0_i_45_1698" x="3.63558" y="21.648" width="258.265" height="98.4132" filterUnits="userSpaceOnUse" color-interpolation-filters="sRGB">
<feFlood flood-opacity="0" result="BackgroundImageFix"/>
<feBlend mode="normal" in="SourceGraphic" in2="BackgroundImageFix" result="shape"/>
<feColorMatrix in="SourceAlpha" type="matrix" values="0 0 0 0 0 0 0 0 0 0 0 0 0 0 0 0 0 0 127 0" result="hardAlpha"/>
<feOffset dx="-4" dy="4"/>
<feGaussianBlur stdDeviation="3.5"/>
<feComposite in2="hardAlpha" operator="arithmetic" k2="-1" k3="1"/>
<feColorMatrix type="matrix" values="0 0 0 0 0 0 0 0 0 0 0 0 0 0 0 0 0 0 0.25 0"/>
<feBlend mode="normal" in2="shape" result="effect1_innerShadow_45_1698"/>
</filter>
<clipPath id="clip0_45_1698">
<rect width="264.469" height="124" fill="white"/>
</clipPath>
</defs>
</svg>
