<svg width="42" height="42" viewBox="0 0 42 42" fill="none" xmlns="http://www.w3.org/2000/svg">
<path d="M40.25 5.2676C40.25 5.2676 36.7185 7.3536 34.755 7.9451C33.701 6.73324 32.3003 5.87431 30.7423 5.48447C29.1843 5.09463 27.5441 5.19269 26.0436 5.76539C24.5432 6.33809 23.2548 7.3578 22.3527 8.6866C21.4507 10.0154 20.9785 11.5892 21 13.1951V14.9451C17.9246 15.0248 14.8772 14.3428 12.1293 12.9596C9.3813 11.5765 7.01805 9.53521 5.25 7.0176C5.25 7.0176 -1.75 22.7676 14 29.7676C10.3959 32.214 6.10252 33.4407 1.75 33.2676C17.5 42.0176 36.75 33.2676 36.75 13.1426C36.75 12.6561 36.701 12.1696 36.61 11.6901C38.395 9.9296 40.25 5.2676 40.25 5.2676Z" stroke="white" stroke-width="3" stroke-linecap="round" stroke-linejoin="round"/>
</svg>
