<svg width="21" height="21" viewBox="0 0 21 21" fill="none" xmlns="http://www.w3.org/2000/svg">
<path d="M19.8333 9.78829C20.0501 9.62678 20.211 9.40147 20.2932 9.14394C20.3755 8.88642 20.3752 8.6096 20.2922 8.3523C20.2092 8.095 20.0478 7.87012 19.8305 7.7092C19.6133 7.54827 19.3511 7.45937 19.0808 7.45495L13.8308 7.25662C13.805 7.25484 13.7803 7.24563 13.7596 7.23011C13.7389 7.21458 13.7231 7.1934 13.7142 7.16912L11.9 2.26912C11.8088 2.01983 11.6433 1.80456 11.4257 1.65248C11.2082 1.50039 10.9492 1.41882 10.6837 1.41882C10.4183 1.41882 10.1593 1.50039 9.94174 1.65248C9.7242 1.80456 9.55865 2.01983 9.4675 2.26912L7.65916 7.18662C7.65023 7.2109 7.63446 7.23208 7.61376 7.24761C7.59306 7.26313 7.56831 7.27234 7.5425 7.27412L2.2925 7.47245C2.02219 7.47687 1.76003 7.56577 1.5428 7.7267C1.32556 7.88762 1.16413 8.1125 1.08115 8.3698C0.998175 8.6271 0.997803 8.90392 1.08009 9.16144C1.16238 9.41897 1.3232 9.64428 1.54 9.80579L5.65833 13.0433C5.67894 13.0595 5.69435 13.0814 5.70264 13.1063C5.71094 13.1312 5.71175 13.1579 5.705 13.1833L4.2875 18.2058C4.21404 18.4615 4.22116 18.7337 4.30788 18.9853C4.3946 19.2369 4.55671 19.4556 4.77216 19.6118C4.98761 19.768 5.24594 19.854 5.512 19.8581C5.77807 19.8623 6.03895 19.7843 6.25916 19.635L10.6108 16.7183C10.6323 16.7035 10.6577 16.6956 10.6837 16.6956C10.7098 16.6956 10.7352 16.7035 10.7567 16.7183L15.1083 19.635C15.3256 19.7894 15.5855 19.8724 15.8521 19.8724C16.1186 19.8724 16.3786 19.7894 16.5958 19.635C16.8113 19.4803 16.9736 19.2626 17.0603 19.0119C17.147 18.7612 17.1539 18.4897 17.08 18.235L15.6508 13.195C15.6433 13.1697 15.6437 13.1426 15.652 13.1176C15.6604 13.0925 15.6763 13.0707 15.6975 13.055L19.8333 9.78829Z" fill="#E19698"/>
</svg>
