<svg width="21" height="21" viewBox="0 0 21 21" fill="none" xmlns="http://www.w3.org/2000/svg">
<path d="M19.8334 9.78829C20.0502 9.62678 20.211 9.40147 20.2933 9.14394C20.3756 8.88642 20.3752 8.6096 20.2922 8.3523C20.2092 8.095 20.0478 7.87012 19.8306 7.7092C19.6133 7.54827 19.3512 7.45937 19.0809 7.45495L13.8309 7.25662C13.805 7.25484 13.7803 7.24563 13.7596 7.23011C13.7389 7.21458 13.7231 7.1934 13.7142 7.16912L11.9 2.26912C11.8089 2.01983 11.6433 1.80456 11.4258 1.65248C11.2082 1.50039 10.9492 1.41882 10.6838 1.41882C10.4183 1.41882 10.1593 1.50039 9.94178 1.65248C9.72423 1.80456 9.55868 2.01983 9.46753 2.26912L7.65919 7.18662C7.65026 7.2109 7.63449 7.23208 7.61379 7.24761C7.59309 7.26313 7.56834 7.27234 7.54253 7.27412L2.29253 7.47245C2.02222 7.47687 1.76006 7.56577 1.54283 7.7267C1.32559 7.88762 1.16416 8.1125 1.08119 8.3698C0.998206 8.6271 0.997834 8.90392 1.08012 9.16144C1.16241 9.41897 1.32323 9.64428 1.54003 9.80579L5.65836 13.0433C5.67897 13.0595 5.69438 13.0814 5.70267 13.1063C5.71097 13.1312 5.71179 13.1579 5.70503 13.1833L4.28753 18.2058C4.21407 18.4615 4.22119 18.7337 4.30791 18.9853C4.39463 19.2369 4.55674 19.4556 4.77219 19.6118C4.98764 19.768 5.24597 19.854 5.51204 19.8581C5.7781 19.8623 6.03898 19.7843 6.25919 19.635L10.6109 16.7183C10.6323 16.7035 10.6577 16.6956 10.6838 16.6956C10.7098 16.6956 10.7353 16.7035 10.7567 16.7183L15.1084 19.635C15.3256 19.7894 15.5855 19.8724 15.8521 19.8724C16.1187 19.8724 16.3786 19.7894 16.5959 19.635C16.8114 19.4803 16.9736 19.2626 17.0603 19.0119C17.147 18.7612 17.1539 18.4897 17.08 18.235L15.6509 13.195C15.6433 13.1697 15.6437 13.1426 15.6521 13.1176C15.6604 13.0925 15.6763 13.0707 15.6975 13.055L19.8334 9.78829Z" fill="#D9CCD1"/>
</svg>
